<?xml version="1.0" encoding="UTF-8"?>
<svg xmlns="http://www.w3.org/2000/svg" version="1.1" xmlns:xlink="http://www.w3.org/1999/xlink" viewBox="0 0 140 140">
  <defs>
    <style>
      .cls-1 {
        fill: #f48047;
      }

      .cls-1, .cls-2, .cls-3, .cls-4, .cls-5, .cls-6, .cls-7, .cls-8, .cls-9, .cls-10, .cls-11, .cls-12, .cls-13, .cls-14, .cls-15, .cls-16, .cls-17, .cls-18, .cls-19, .cls-20, .cls-21, .cls-22, .cls-23, .cls-24, .cls-25, .cls-26, .cls-27, .cls-28, .cls-29, .cls-30, .cls-31, .cls-32, .cls-33, .cls-34, .cls-35 {
        stroke-width: 0px;
      }

      .cls-2 {
        fill: #fffbf7;
      }

      .cls-36 {
        clip-path: url(#clippath-20);
      }

      .cls-37 {
        clip-path: url(#clippath-11);
      }

      .cls-38 {
        clip-path: url(#clippath-16);
      }

      .cls-39, .cls-40, .cls-41, .cls-13, .cls-42, .cls-43, .cls-44, .cls-45 {
        fill: none;
      }

      .cls-39, .cls-40, .cls-41, .cls-42, .cls-46, .cls-43, .cls-44, .cls-47, .cls-48, .cls-45 {
        stroke-linecap: round;
      }

      .cls-39, .cls-40, .cls-48 {
        stroke-width: 3px;
      }

      .cls-39, .cls-49, .cls-42, .cls-43, .cls-50, .cls-51 {
        stroke-miterlimit: 10;
      }

      .cls-39, .cls-42, .cls-46, .cls-43, .cls-51 {
        stroke: #160e0e;
      }

      .cls-40, .cls-41, .cls-47, .cls-48, .cls-45 {
        stroke: #240e10;
      }

      .cls-40, .cls-46, .cls-44, .cls-47, .cls-48, .cls-45 {
        stroke-linejoin: round;
      }

      .cls-3, .cls-47 {
        fill: #ff452d;
      }

      .cls-4 {
        fill: url(#linear-gradient);
      }

      .cls-52 {
        fill: #ffe87e;
        stroke: #ef5a02;
      }

      .cls-52, .cls-53 {
        stroke-miterlimit: 7;
      }

      .cls-52, .cls-53, .cls-42, .cls-46, .cls-50, .cls-45 {
        stroke-width: 2px;
      }

      .cls-5 {
        fill: #f2f2f2;
      }

      .cls-53 {
        fill: #eefbff;
        stroke: #0191ab;
      }

      .cls-6 {
        fill: url(#linear-gradient-6);
      }

      .cls-7 {
        fill: #cfac9b;
      }

      .cls-54 {
        clip-path: url(#clippath-2);
      }

      .cls-55 {
        clip-path: url(#clippath-13);
      }

      .cls-56, .cls-49, .cls-14, .cls-28, .cls-31, .cls-35 {
        isolation: isolate;
      }

      .cls-8 {
        fill: #9a142b;
      }

      .cls-9 {
        fill: #fffb3f;
      }

      .cls-57 {
        clip-path: url(#clippath-15);
      }

      .cls-58 {
        clip-path: url(#clippath-6);
      }

      .cls-10 {
        fill: #fdf1d4;
      }

      .cls-11 {
        fill: #f2f1f0;
      }

      .cls-49 {
        fill: #faf06b;
        stroke: #eb7a05;
      }

      .cls-12 {
        fill: url(#linear-gradient-5);
      }

      .cls-59 {
        clip-path: url(#clippath-7);
      }

      .cls-60 {
        clip-path: url(#clippath-21);
      }

      .cls-61 {
        clip-path: url(#clippath-1);
      }

      .cls-62 {
        clip-path: url(#clippath-4);
      }

      .cls-46 {
        fill: #dc2227;
      }

      .cls-14 {
        fill: #c04727;
        opacity: .8;
      }

      .cls-63 {
        clip-path: url(#clippath-12);
      }

      .cls-15 {
        fill: #e86f06;
      }

      .cls-16 {
        fill: url(#linear-gradient-2);
      }

      .cls-17 {
        fill: #e8291a;
      }

      .cls-18 {
        fill: #fffefb;
      }

      .cls-64 {
        clip-path: url(#clippath-22);
      }

      .cls-19 {
        fill: url(#linear-gradient-7);
      }

      .cls-20 {
        fill: url(#radial-gradient-2);
      }

      .cls-21 {
        fill: url(#linear-gradient-3);
      }

      .cls-22 {
        fill: #fcf9df;
      }

      .cls-65 {
        clip-path: url(#clippath-9);
      }

      .cls-66 {
        clip-path: url(#clippath);
      }

      .cls-23 {
        fill: #fafafa;
      }

      .cls-24 {
        fill: #160e0e;
      }

      .cls-25 {
        fill: url(#radial-gradient);
      }

      .cls-67 {
        clip-path: url(#clippath-19);
      }

      .cls-68 {
        clip-path: url(#clippath-3);
      }

      .cls-44 {
        stroke: #aa4214;
      }

      .cls-26 {
        fill: url(#linear-gradient-8);
      }

      .cls-50 {
        fill: #f58220;
        stroke: #251012;
      }

      .cls-69 {
        clip-path: url(#clippath-8);
      }

      .cls-27 {
        fill: #fff;
      }

      .cls-70 {
        clip-path: url(#clippath-18);
      }

      .cls-48, .cls-30 {
        fill: #f9f2d8;
      }

      .cls-71 {
        clip-path: url(#clippath-14);
      }

      .cls-72 {
        clip-path: url(#clippath-17);
      }

      .cls-73 {
        clip-path: url(#clippath-5);
      }

      .cls-74 {
        display: none;
      }

      .cls-28 {
        fill: url(#linear-gradient-9);
      }

      .cls-29 {
        fill: #ead2ae;
      }

      .cls-31 {
        fill: #f9e250;
      }

      .cls-31, .cls-35 {
        opacity: .6;
      }

      .cls-75 {
        opacity: .9;
      }

      .cls-32 {
        fill: url(#radial-gradient-3);
      }

      .cls-76 {
        clip-path: url(#clippath-10);
      }

      .cls-33 {
        fill: #fbf8dc;
      }

      .cls-51 {
        fill: #f1fef9;
      }

      .cls-77 {
        clip-path: url(#clippath-23);
      }

      .cls-34 {
        fill: url(#linear-gradient-4);
      }

      .cls-35 {
        fill: #fafbfb;
      }
    </style>
    <linearGradient id="linear-gradient" x1="73.5" y1="34" x2="65.4" y2="42.1" gradientTransform="translate(0 162.2) scale(1 -1)" gradientUnits="userSpaceOnUse">
      <stop offset="0" stop-color="#a64524"/>
      <stop offset=".7" stop-color="#e0873b"/>
      <stop offset="1" stop-color="#f29843"/>
    </linearGradient>
    <radialGradient id="radial-gradient" cx="66" cy="37.5" fx="66" fy="37.5" r="4.6" gradientTransform="translate(0 162.2) scale(1 -1)" gradientUnits="userSpaceOnUse">
      <stop offset="0" stop-color="#e18624"/>
      <stop offset=".8" stop-color="#f29843"/>
    </radialGradient>
    <clipPath id="clippath">
      <rect class="cls-13" x="-11.3" y="46.5" width="94.8" height="91.7"/>
    </clipPath>
    <clipPath id="clippath-1">
      <rect class="cls-13" x="56.1" y="46.5" width="94.8" height="91.7"/>
    </clipPath>
    <clipPath id="clippath-2">
      <rect class="cls-13" x="-11.3" y="46.5" width="94.8" height="91.7"/>
    </clipPath>
    <clipPath id="clippath-3">
      <rect class="cls-13" x="56.1" y="46.5" width="94.8" height="91.7"/>
    </clipPath>
    <clipPath id="clippath-4">
      <rect class="cls-13" x="34.6" y="66.6" width="25.4" height="25.3"/>
    </clipPath>
    <linearGradient id="linear-gradient-2" x1="45.1" y1="89.8" x2="36.8" y2="81.4" gradientTransform="translate(0 162.2) scale(1 -1)" gradientUnits="userSpaceOnUse">
      <stop offset=".3" stop-color="#faf7ef"/>
      <stop offset=".8" stop-color="#cebfa9"/>
      <stop offset="1" stop-color="#c1b19b"/>
    </linearGradient>
    <radialGradient id="radial-gradient-2" cx="49.9" cy="76.8" fx="62" fy="76.8" r="14.7" gradientTransform="translate(0 162.2) scale(1 -1)" gradientUnits="userSpaceOnUse">
      <stop offset="0" stop-color="#a64524"/>
      <stop offset=".6" stop-color="#e0873b"/>
      <stop offset="1" stop-color="#f29843"/>
    </radialGradient>
    <clipPath id="clippath-5">
      <rect class="cls-13" x="77.5" y="66.6" width="25.4" height="25.3"/>
    </clipPath>
    <linearGradient id="linear-gradient-3" x1="45.1" y1="89.8" x2="36.8" y2="81.4" gradientTransform="translate(137.6 162.2) rotate(-180)" gradientUnits="userSpaceOnUse">
      <stop offset=".3" stop-color="#faf7ef"/>
      <stop offset=".8" stop-color="#cebfa9"/>
      <stop offset="1" stop-color="#c1b19b"/>
    </linearGradient>
    <radialGradient id="radial-gradient-3" cx="49.9" cy="76.8" fx="62" fy="76.8" r="14.7" gradientTransform="translate(137.6 162.2) rotate(-180)" gradientUnits="userSpaceOnUse">
      <stop offset="0" stop-color="#a64524"/>
      <stop offset=".6" stop-color="#e0873b"/>
      <stop offset="1" stop-color="#f29843"/>
    </radialGradient>
    <linearGradient id="linear-gradient-4" x1="68.7" y1="77.7" x2="68.7" y2="73.2" gradientTransform="translate(0 162.2) scale(1 -1)" gradientUnits="userSpaceOnUse">
      <stop offset=".1" stop-color="#a64524"/>
      <stop offset=".9" stop-color="#e0873b"/>
    </linearGradient>
    <clipPath id="clippath-6">
      <rect class="cls-13" x="34.6" y="66.6" width="25.4" height="25.3"/>
    </clipPath>
    <clipPath id="clippath-7">
      <rect class="cls-13" x="77.5" y="66.6" width="25.4" height="25.3"/>
    </clipPath>
    <clipPath id="clippath-8">
      <rect class="cls-13" x="34.6" y="66.6" width="25.4" height="25.3"/>
    </clipPath>
    <clipPath id="clippath-9">
      <rect class="cls-13" x="77.5" y="66.6" width="25.4" height="25.3"/>
    </clipPath>
    <clipPath id="clippath-10">
      <rect class="cls-13" x="34.6" y="66.6" width="25.4" height="25.3"/>
    </clipPath>
    <clipPath id="clippath-11">
      <rect class="cls-13" x="77.5" y="66.6" width="25.4" height="25.3"/>
    </clipPath>
    <clipPath id="clippath-12">
      <rect class="cls-13" x="34.6" y="66.6" width="25.4" height="25.3"/>
    </clipPath>
    <clipPath id="clippath-13">
      <rect class="cls-13" x="77.5" y="66.6" width="25.4" height="25.3"/>
    </clipPath>
    <clipPath id="clippath-14">
      <rect class="cls-13" x="34.6" y="66.6" width="25.4" height="25.3"/>
    </clipPath>
    <clipPath id="clippath-15">
      <rect class="cls-13" x="77.5" y="66.6" width="25.4" height="25.3"/>
    </clipPath>
    <clipPath id="clippath-16">
      <rect class="cls-13" x="34.6" y="66.6" width="25.4" height="25.3"/>
    </clipPath>
    <clipPath id="clippath-17">
      <rect class="cls-13" x="77.5" y="66.6" width="25.4" height="25.3"/>
    </clipPath>
    <linearGradient id="linear-gradient-5" x1="59.3" y1="98.8" x2="76.9" y2="98.8" gradientUnits="userSpaceOnUse">
      <stop offset=".1" stop-color="#d2724b"/>
      <stop offset=".6" stop-color="#f5a65c"/>
      <stop offset=".8" stop-color="#fe7c47"/>
      <stop offset="1" stop-color="#fe7c46"/>
    </linearGradient>
    <clipPath id="clippath-18">
      <rect class="cls-13" x="34.6" y="66.6" width="25.4" height="25.3"/>
    </clipPath>
    <clipPath id="clippath-19">
      <rect class="cls-13" x="77.5" y="66.6" width="25.4" height="25.3"/>
    </clipPath>
    <clipPath id="clippath-20">
      <rect class="cls-13" x="34.6" y="66.6" width="25.4" height="25.3"/>
    </clipPath>
    <clipPath id="clippath-21">
      <rect class="cls-13" x="77.5" y="66.6" width="25.4" height="25.3"/>
    </clipPath>
    <clipPath id="clippath-22">
      <rect class="cls-13" x="34.6" y="66.6" width="25.4" height="25.3"/>
    </clipPath>
    <clipPath id="clippath-23">
      <rect class="cls-13" x="77.5" y="66.6" width="25.4" height="25.3"/>
    </clipPath>
    <linearGradient id="linear-gradient-6" x1="39.9" y1="81.3" x2="56.1" y2="90.6" gradientTransform="translate(3.7 -10.6) rotate(3.5) scale(1 1.1)" gradientUnits="userSpaceOnUse">
      <stop offset=".1" stop-color="#3a9aa5"/>
      <stop offset=".5" stop-color="#65c8c0"/>
      <stop offset=".9" stop-color="#5bc6b6"/>
      <stop offset="1" stop-color="#54c0b4"/>
    </linearGradient>
    <linearGradient id="linear-gradient-7" x1="77.9" y1="81.3" x2="97.2" y2="92.5" gradientTransform="matrix(1,0,0,1,0,0)" xlink:href="#linear-gradient-6"/>
    <linearGradient id="linear-gradient-8" x1="93.9" y1="94.4" x2="98.6" y2="94.4" gradientTransform="matrix(1,0,0,1,0,0)" xlink:href="#linear-gradient-6"/>
    <linearGradient id="linear-gradient-9" x1="108.4" y1="121.2" x2="120.4" y2="121.2" gradientTransform="translate(13.7 -12) rotate(6.3)" xlink:href="#linear-gradient-5"/>
  </defs>
  <g id="Layer_1" data-name="Layer 1">
    <g id="Layer_2" data-name="Layer 2">
      <path class="cls-30" d="M98,124.1c-6-1-10.8,2.2-16.3,2.8-5.6.7-7.4,0-7.4,0,0,0-2.3-2.4-11.5-.9-10.6,1.8-9.9-.4-16.7-1.6-3.3-.6-6,.2-7.9,1.2-1.1,2.3-1.8,4.1-1.8,4.1,0,0,5.3,2,16.7,1.8,11.4-.2,12.4-1,19.5-.4,21.1,3,27.3-1.4,27.3-1.4-.5-2.2-1.2-4-2-5.6h0Z"/>
      <path class="cls-29" d="M46.2,124.4c6.8,1.2,6.1,3.3,16.7,1.6,9.2-1.5,11.5.9,11.5.9,0,0,1.7.8,7.4,0,5.4-.7,10.3-3.9,16.3-2.8-3.1-6.3-7.2-8-7.2-8-25.1,5.7-44-1-44-1-3.5,1.3-6.6,6.7-8.5,10.5,1.9-1,4.6-1.8,7.9-1.2h0Z"/>
      <path class="cls-40" d="M100,129.7s-3-10.2-7.6-14.4c0,0-21.5,6.6-45.7-.2,0,0-5.6,2.1-9.6,14.6"/>
      <g id="Layer_5" data-name="Layer 5">
        <path class="cls-46" d="M48.8,116.2s-3.5-.7-3.5,1.6,3.7,5.8,17.7,7.2c14,1.4,26.1-.6,29.2-6.6.7-2.8-1.5-2.3-1.5-2.3,0,0-23.6,6.3-42,.1h0Z"/>
      </g>
      <path class="cls-48" d="M26.4,65.5s-14.6,25.8,1.3,40c15.8,14.2,61.8,20.6,82.6-.9,16.2-16.4.9-38,.9-38,0,0,13.3-18.5.4-36.2-6.6-7.4-27.3,13.3-27.3,13.3,0,0-15.1-7.6-30.9-.2,0,0-15.6-16.9-27.5-12.6-8.6,3.8-6.2,29.8.6,34.6h0Z"/>
      <g id="Layer_9" data-name="Layer 9">
        <path class="cls-7" d="M21.9,85.6s2.8,27.6,43.4,27.4c40.6-.2,49.2-16.3,49.2-16.3,0,0-5,14-31.2,19.4-18.8,3.9-46.3-1.4-57.6-14.4-.2-.2-.3-.4-.4-.6-4.5-7.8-3.4-15.4-3.4-15.5Z"/>
      </g>
      <path class="cls-1" d="M112.7,34.1s4.8,8.9,2.4,20.1c-1.9,9.2-5.4,12.5-5.4,12.5,0,0-6.4-10.7-10.8-13.8,0,0,6.7-.3,5.4-2.9-1-2.1-.8-3.3-7.7-3.6,0,0,6.1-11,16.1-12.3Z"/>
      <path class="cls-45" d="M111,66.4s-6.2-10.9-12.4-13.6c0,0,7.1,0,6.2-2.4s-3.4-4.9-10.9-2.4c0,0,10.7-14,20-14.7"/>
      <path class="cls-1" d="M24,34.2s11.9,3.8,16.7,12.2c0,0-8.4,0-8.5,3.4s6,2.6,6,2.6c0,0-7.2,3.7-11.7,12.5,0,0-3.9-6.2-4.6-15-.4-5.4-.9-8.8,2.1-15.6h0Z"/>
      <path class="cls-45" d="M23.3,33.4s5.6-.4,20.3,14.7c0,0-9.7-3.3-11.6,1.9-.7,1.7,7.4,2.6,7.4,2.6,0,0-8.4,3.6-13,14.5"/>
      <g id="Layer_6" data-name="Layer 6">
        <circle class="cls-50" cx="68.8" cy="124.5" r="5.9"/>
        <path class="cls-4" d="M74.7,124.5c0-3.3-2.7-5.9-5.9-5.9s-1.6.2-2.3.5c-1.1,1.9-2.8,5.5-1.2,7.9,1,1.6,2.6,2.7,3.8,3.4,3.1-.2,5.6-2.7,5.6-5.9h0Z"/>
        <ellipse class="cls-35" cx="67.2" cy="122.2" rx="1.6" ry="1.4" transform="translate(-68.1 156) rotate(-75.2)"/>
        <ellipse class="cls-31" cx="70.5" cy="122.5" rx=".9" ry="1.2" transform="translate(-66 85.8) rotate(-45)"/>
        <path class="cls-14" d="M67,126.9s.9.9,1.9,1.2,2-.1,2.4-.6c0,0-.6.6-1.5,1s-1.9-.5-1.9-.5c0,0-.3-.6-.8-1.1h0Z"/>
        <path class="cls-25" d="M65.2,126.9c-1.6-2.4.1-6,1.2-7.9-2.1.9-3.6,3-3.6,5.4s2.7,5.9,5.9,5.9.2,0,.3,0c-1.3-.7-2.8-1.8-3.8-3.4h0Z"/>
      </g>
    </g>
    <g id="mejillas" class="cls-75">
      <g class="cls-74">
        <g id="_Mirror_Repeat_" data-name=" Mirror Repeat ">
          <g class="cls-66">
            <image class="cls-56" width="394" height="380" transform="translate(-11.3 46.7) scale(.2)" xlink:href="cat_suspicious-1.png"/>
          </g>
        </g>
        <g id="_Mirror_Repeat_-2" data-name=" Mirror Repeat -2">
          <g class="cls-61">
            <image class="cls-56" width="392" height="380" transform="translate(56.2 46.5) scale(.2)" xlink:href="cat_suspicious-2.png"/>
          </g>
        </g>
      </g>
      <g id="Layer_8" data-name="Layer 8" class="cls-75">
        <g>
          <g id="_Mirror_Repeat_-2" data-name=" Mirror Repeat ">
            <g class="cls-54">
              <image class="cls-56" width="394" height="380" transform="translate(-11.3 46.7) scale(.2)" xlink:href="cat_suspicious-3.png"/>
            </g>
          </g>
          <g id="_Mirror_Repeat_-2-2" data-name=" Mirror Repeat -2">
            <g class="cls-68">
              <image class="cls-56" width="392" height="380" transform="translate(56.2 46.5) scale(.2)" xlink:href="cat_suspicious-4.png"/>
            </g>
          </g>
        </g>
      </g>
    </g>
    <g id="bigotes">
      <path class="cls-42" d="M109.6,94.4s6.2.6,9.8,4.4"/>
      <path class="cls-42" d="M106.3,101.3s4.6,3.8,6.4,5.3"/>
      <path class="cls-42" d="M28.3,94.4s-6.9,1.6-9.3,4.4"/>
      <path class="cls-42" d="M31.6,101.3s-5.1,4.9-6.7,7.3"/>
    </g>
    <g id="curious" class="cls-74">
      <g id="happy_copy" data-name="happy copy">
        <g id="ojos">
          <g>
            <g id="_Mirror_Repeat_-3" data-name=" Mirror Repeat -3">
              <g class="cls-62">
                <g>
                  <path class="cls-24" d="M60,78.4c-.3-3.4-1.3-5.8-2.5-7.5-2.6-1.3-6.1-2.3-9.7-1.3-1.5.4-2.8.9-3.9,1.6-2.3,2.4-4,5.6-3.4,9.5,1.7,0,2.1.8,3.5,2,2.1,1,3.8,2.8,9.6.2,3.5-1.5,5.1,0,5.9,1.5.5-1.6.8-3.5.6-5.9h0Z"/>
                  <path class="cls-18" d="M37.3,81.2c0,4.1,4.3,8.9,10.9,9-3.2-1.3-6.7-3.9-7.8-9.2,0-.1,0-.3,0-.4,0,0-.1,0-.2,0-1,0-2,.2-2.9.6Z"/>
                  <path class="cls-16" d="M43.8,71.1c-4.6,2.5-6.4,6.7-6.5,10v.2c.9-.4,1.9-.7,2.9-.6,0,0,.1,0,.2,0-.6-4,1.1-7.2,3.4-9.6h0Z"/>
                  <path class="cls-27" d="M48.7,73.7s.2-3.6,3.3-3.5,3.8,3.2,3.7,4-.8,3-3,3.2-3.9-1.7-4.1-3.7h0Z"/>
                  <path class="cls-20" d="M58.8,83.4c-.9-1.2-2.5-2-5.4-.7-5.9,2.6-7.5.9-9.6-.2-1.3-1.2-1.8-1.9-3.5-2,0,.2,0,.3,0,.5,1,5.3,4.5,7.9,7.8,9.2h.1c1.1,0,2.2,0,3.3-.1h0c4.6-1.2,6.5-4.5,7.2-6.7h0Z"/>
                  <path class="cls-24" d="M58.8,83.4c-.8,2.2-2.7,5.4-7.2,6.7h0c-1.3.2-2.2.1-3.3.1-6.8,0-11.1-5-11-9.2s2.8-9.5,10.4-11.6c3.7-1,7.1,0,9.7,1.3-3.6-5-9.6-4.2-9.6-4.2,0,0-12.4,0-13.2,12.6-.6,12.9,13.2,12.6,13.2,12.6,0,0,3.6,0,6.9-2,1.9-1.1,3.7-2.8,4.6-5.5-.2-.3-.3-.6-.5-.8h0Z"/>
                </g>
              </g>
            </g>
            <g id="_Mirror_Repeat_-4" data-name=" Mirror Repeat -4">
              <g class="cls-73">
                <g>
                  <path class="cls-24" d="M77.6,78.4c.3-3.4,1.3-5.8,2.5-7.5,2.6-1.3,6.1-2.3,9.7-1.3,1.5.4,2.8.9,3.9,1.6,2.3,2.4,4,5.6,3.4,9.5-1.7,0-2.1.8-3.5,2-2.1,1-3.8,2.8-9.6.2-3.5-1.5-5.1,0-5.9,1.5-.6-1.6-.8-3.5-.6-5.9h0Z"/>
                  <path class="cls-18" d="M100.3,81.2c0,4.1-4.3,8.9-10.9,9,3.2-1.3,6.7-3.9,7.8-9.2,0-.1,0-.3,0-.4,0,0,.1,0,.2,0,1,0,2,.2,2.9.6Z"/>
                  <path class="cls-21" d="M93.8,71.1c4.7,2.5,6.4,6.7,6.5,10v.2c-.9-.4-1.9-.7-2.9-.6,0,0-.1,0-.2,0,.6-4-1.1-7.2-3.4-9.6h0Z"/>
                  <path class="cls-27" d="M88.9,73.7s-.2-3.6-3.3-3.5-3.8,3.2-3.7,4,.8,3,3,3.2,3.9-1.7,4.1-3.7h0Z"/>
                  <path class="cls-32" d="M78.7,83.4c.9-1.2,2.5-2,5.4-.7,5.9,2.6,7.5.9,9.6-.2,1.3-1.2,1.8-1.9,3.5-2,0,.2,0,.3,0,.5-1,5.3-4.6,7.9-7.8,9.2h-.1c-1.1,0-2.2,0-3.3-.1h0c-4.6-1.2-6.5-4.5-7.2-6.7h0Z"/>
                  <path class="cls-24" d="M78.7,83.4c.8,2.2,2.7,5.4,7.2,6.7h0c1.3.2,2.2.1,3.3.1,6.8,0,11.2-5,11-9.2s-2.8-9.5-10.4-11.6c-3.7-1-7.1,0-9.7,1.3,3.6-5,9.6-4.2,9.6-4.2,0,0,12.4,0,13.2,12.6.6,12.9-13.2,12.6-13.2,12.6,0,0-3.6,0-6.9-2-1.9-1.1-3.7-2.8-4.6-5.5.2-.3.3-.6.5-.8h0Z"/>
                </g>
              </g>
            </g>
          </g>
        </g>
        <circle class="cls-27" cx="47.3" cy="78.2" r="1.4"/>
        <circle class="cls-27" cx="90.3" cy="77.2" r="1.4"/>
      </g>
      <path class="cls-39" d="M81.2,59.1s1.6-1.4,3.5-1.5"/>
      <path class="cls-39" d="M51.5,57.2s3.1.2,4.3.7"/>
      <g>
        <path class="cls-42" d="M68.6,88.1s-.3,1.9,0,2.4"/>
        <path class="cls-42" d="M64.5,93.5s2.7-2.3,4.4-2.3,5.6,2.3,5.6,2.3"/>
      </g>
      <g id="Layer_7" data-name="Layer 7">
        <path class="cls-34" d="M65.3,86.4s-.1-.7.3-1c.6-.5,1.2-.9,3.3-.9s2.9,1.1,2.9,1.1c0,0,.3.3.3.5,0,.4-.4.8-.4.8,0,0-1.3,1.7-2.3,2-.3.1-.5.1-.8.1-.3,0-2.3-.2-3.3-2.7h0Z"/>
      </g>
      <path class="cls-53" d="M49.3,23.4l.9-2.2c0-.2.3-.2.4,0l1.9,2.3s0,0,.1,0l3,.5c.2,0,.3.2.1.4l-1.9,2.4c0,0,0,.1,0,.2l.5,2.9c0,.2-.1.3-.3.3l-2.6-.6c0,0-.1,0-.2,0l-2.7,1.4c-.2,0-.3,0-.3-.2v-2.9c0,0,0-.1,0-.2l-2.3-2.3c-.1-.1,0-.3,0-.4l3.1-1.4c0,0,0,0,.1-.1Z"/>
      <path class="cls-52" d="M87,23.1l1.6-1.8c.1-.1.3,0,.4,0l1.1,2.8c0,0,0,0,.1.1l2.7,1.4c.2,0,.2.3,0,.4l-2.5,1.7c0,0,0,0-.1.2l-.4,2.9c0,.2-.2.3-.4.2l-2.2-1.4s-.1,0-.2,0l-3,.4c-.2,0-.3-.1-.3-.3l.9-2.8c0,0,0-.1,0-.2l-1.4-2.9c0-.1,0-.3.2-.3l3.4-.3c0,0,.1,0,.2,0Z"/>
      <path class="cls-42" d="M67.1,22.7s1.9-2.9,3.4-1.2,1.9,3.2-1.3,5.2c-.2.2-.2.4-.2.4"/>
      <circle class="cls-24" cx="69.3" cy="29.7" r="1.2"/>
    </g>
    <g id="affectionate" class="cls-74">
      <path class="cls-39" d="M81.2,59.1s1.6-1.4,3.5-1.5"/>
      <path class="cls-39" d="M51.5,57.2s3.1.2,4.3.7"/>
      <g id="Layer_7-2" data-name="Layer 7">
        <path class="cls-34" d="M65.3,86.4s-.1-.7.3-1c.6-.5,1.2-.9,3.3-.9s2.9,1.1,2.9,1.1c0,0,.3.3.3.5,0,.4-.4.8-.4.8,0,0-1.3,1.7-2.3,2-.3.1-.5.1-.8.1-.3,0-2.3-.2-3.3-2.7h0Z"/>
      </g>
      <path class="cls-52" d="M14.4,118.1l1.6-1.8c.1-.1.3,0,.4,0l1.1,2.8c0,0,0,0,.1.1l2.7,1.4c.2,0,.2.3,0,.4l-2.5,1.7c0,0,0,0-.1.2l-.4,2.9c0,.2-.2.3-.4.2l-2.2-1.4s-.1,0-.2,0l-3,.4c-.2,0-.3-.1-.3-.3l.9-2.8c0,0,0-.1,0-.2l-1.4-2.9c0-.1,0-.3.2-.3l3.4-.3c0,0,.1,0,.2,0Z"/>
      <path class="cls-52" d="M67,23.2l1.6-1.8c.1-.1.3,0,.4,0l1.1,2.8c0,0,0,0,.1.1l2.7,1.4c.2,0,.2.3,0,.4l-2.5,1.7c0,0,0,0-.1.2l-.4,2.9c0,.2-.2.3-.4.2l-2.2-1.4s-.1,0-.2,0l-3,.4c-.2,0-.3-.1-.3-.3l.9-2.8c0,0,0-.1,0-.2l-1.4-2.9c0-.1,0-.3.2-.3l3.4-.3c0,0,.1,0,.2,0Z"/>
      <path class="cls-24" d="M60.2,79.4s.4,1.1-.3,1.7-2.9-1.3-2.9-1.3c0,0-2.9-3.3-6.5-3s-5.1,1.5-7.6,4c-1.2,1.2-2.2.8-2.2.8l-1.5-1.2s-.9-.8,0-2,5.1-6.2,10.4-6.5,9.5,4.1,10.6,7.6Z"/>
      <path class="cls-24" d="M80.9,80.2s-1.2,1.4-1.7,1.2-.9-1.4,0-3.4,3.5-6,10.6-6,11.3,6.2,11.3,6.2c0,0,.5.8,0,1.6s-1.4,1.6-1.4,1.6c0,0-1,.6-1.7,0s-4.7-4.4-8.8-4.6-8.2,3.4-8.2,3.4Z"/>
      <g>
        <path class="cls-42" d="M68.7,88.6s.2,4.2,5,5.4c3,.9,4.4-1.6,4.4-1.6"/>
        <path class="cls-42" d="M60.6,93s3.8,4,8.3-3.4"/>
      </g>
      <path class="cls-49" d="M4.6,68.6l4.2-1.5c.1,0,.2-.1.2-.2l1.2-5.5c0-.2.4-.2.4,0l1.8,5.2c0,.1.6.3.7.3l3.8,1.1c.3,0-.1.7-.4.9l-3.6,2.3c0,0-.4.5-.4,1l-.4,3.8c0,.3-.5.4-.6.1l-2.5-5h-.1c0-.1-4.5-1.7-4.5-1.7-.3-.1-.1-.7.2-.8Z"/>
      <path class="cls-49" d="M113.4,111.4l4.2-1.5c.1,0,.2-.1.2-.2l1.2-5.5c0-.2.4-.2.4,0l1.8,5.2c0,.1.6.3.7.3l3.8,1.1c.3,0-.1.7-.4.9l-3.6,2.3c0,0-.4.5-.4,1l-.4,3.8c0,.3-.5.4-.6.1l-2.5-5h-.1c0-.1-4.5-1.7-4.5-1.7-.3-.1-.1-.7.2-.8Z"/>
      <path class="cls-49" d="M119.7,57.5l4.2-1.5c.1,0,.2-.1.2-.2l1.2-5.5c0-.2.4-.2.4,0l1.8,5.2c0,.1.6.3.7.3l3.8,1.1c.3,0-.1.7-.4.9l-3.6,2.3c0,0-.4.5-.4,1l-.4,3.8c0,.3-.5.4-.6.1l-2.5-5h-.1c0-.1-4.5-1.7-4.5-1.7-.3-.1-.1-.7.2-.8Z"/>
    </g>
    <g id="Layer_7-3" data-name="Layer 7" class="cls-74">
      <image width="197" height="280" transform="translate(14.6 26.7) scale(.4)" xlink:href="cat_suspicious-5.png"/>
    </g>
    <g id="happy" class="cls-74">
      <g id="ojos-2" data-name="ojos">
        <g>
          <g id="_Mirror_Repeat_-3-2" data-name=" Mirror Repeat -3">
            <g class="cls-58">
              <g>
                <path class="cls-24" d="M60,78.4c-.3-3.4-1.3-5.8-2.5-7.5-2.6-1.3-6.1-2.3-9.7-1.3-1.5.4-2.8.9-3.9,1.6-2.3,2.4-4,5.6-3.4,9.5,1.7,0,2.1.8,3.5,2,2.1,1,3.8,2.8,9.6.2,3.5-1.5,5.1,0,5.9,1.5.5-1.6.8-3.5.6-5.9h0Z"/>
                <path class="cls-18" d="M37.3,81.2c0,4.1,4.3,8.9,10.9,9-3.2-1.3-6.7-3.9-7.8-9.2,0-.1,0-.3,0-.4,0,0-.1,0-.2,0-1,0-2,.2-2.9.6Z"/>
                <path class="cls-16" d="M43.8,71.1c-4.6,2.5-6.4,6.7-6.5,10v.2c.9-.4,1.9-.7,2.9-.6,0,0,.1,0,.2,0-.6-4,1.1-7.2,3.4-9.6h0Z"/>
                <path class="cls-27" d="M48.7,73.7s.2-3.6,3.3-3.5,3.8,3.2,3.7,4-.8,3-3,3.2-3.9-1.7-4.1-3.7h0Z"/>
                <path class="cls-20" d="M58.8,83.4c-.9-1.2-2.5-2-5.4-.7-5.9,2.6-7.5.9-9.6-.2-1.3-1.2-1.8-1.9-3.5-2,0,.2,0,.3,0,.5,1,5.3,4.5,7.9,7.8,9.2h.1c1.1,0,2.2,0,3.3-.1h0c4.6-1.2,6.5-4.5,7.2-6.7h0Z"/>
                <path class="cls-24" d="M58.8,83.4c-.8,2.2-2.7,5.4-7.2,6.7h0c-1.3.2-2.2.1-3.3.1-6.8,0-11.1-5-11-9.2s2.8-9.5,10.4-11.6c3.7-1,7.1,0,9.7,1.3-3.6-5-9.6-4.2-9.6-4.2,0,0-12.4,0-13.2,12.6-.6,12.9,13.2,12.6,13.2,12.6,0,0,3.6,0,6.9-2,1.9-1.1,3.7-2.8,4.6-5.5-.2-.3-.3-.6-.5-.8h0Z"/>
              </g>
            </g>
          </g>
          <g id="_Mirror_Repeat_-4-2" data-name=" Mirror Repeat -4">
            <g class="cls-59">
              <g>
                <path class="cls-24" d="M77.6,78.4c.3-3.4,1.3-5.8,2.5-7.5,2.6-1.3,6.1-2.3,9.7-1.3,1.5.4,2.8.9,3.9,1.6,2.3,2.4,4,5.6,3.4,9.5-1.7,0-2.1.8-3.5,2-2.1,1-3.8,2.8-9.6.2-3.5-1.5-5.1,0-5.9,1.5-.6-1.6-.8-3.5-.6-5.9h0Z"/>
                <path class="cls-18" d="M100.3,81.2c0,4.1-4.3,8.9-10.9,9,3.2-1.3,6.7-3.9,7.8-9.2,0-.1,0-.3,0-.4,0,0,.1,0,.2,0,1,0,2,.2,2.9.6Z"/>
                <path class="cls-21" d="M93.8,71.1c4.7,2.5,6.4,6.7,6.5,10v.2c-.9-.4-1.9-.7-2.9-.6,0,0-.1,0-.2,0,.6-4-1.1-7.2-3.4-9.6h0Z"/>
                <path class="cls-27" d="M88.9,73.7s-.2-3.6-3.3-3.5-3.8,3.2-3.7,4,.8,3,3,3.2,3.9-1.7,4.1-3.7h0Z"/>
                <path class="cls-32" d="M78.7,83.4c.9-1.2,2.5-2,5.4-.7,5.9,2.6,7.5.9,9.6-.2,1.3-1.2,1.8-1.9,3.5-2,0,.2,0,.3,0,.5-1,5.3-4.6,7.9-7.8,9.2h-.1c-1.1,0-2.2,0-3.3-.1h0c-4.6-1.2-6.5-4.5-7.2-6.7h0Z"/>
                <path class="cls-24" d="M78.7,83.4c.8,2.2,2.7,5.4,7.2,6.7h0c1.3.2,2.2.1,3.3.1,6.8,0,11.2-5,11-9.2s-2.8-9.5-10.4-11.6c-3.7-1-7.1,0-9.7,1.3,3.6-5,9.6-4.2,9.6-4.2,0,0,12.4,0,13.2,12.6.6,12.9-13.2,12.6-13.2,12.6,0,0-3.6,0-6.9-2-1.9-1.1-3.7-2.8-4.6-5.5.2-.3.3-.6.5-.8h0Z"/>
              </g>
            </g>
          </g>
        </g>
      </g>
      <g>
        <path class="cls-42" d="M68.7,88.6s.2,4.2,5,5.4c3,.9,4.4-1.6,4.4-1.6"/>
        <path class="cls-42" d="M60.6,93s3.8,4,8.3-3.4"/>
      </g>
      <g>
        <path class="cls-39" d="M81.2,61.7s2.6-1.5,7.9-2.4"/>
        <path class="cls-39" d="M57.6,60.8s-2.5-1.5-7.9-2.4"/>
      </g>
    </g>
    <g id="playful" class="cls-74">
      <g id="ojos-3" data-name="ojos">
        <g>
          <g id="_Mirror_Repeat_-3-3" data-name=" Mirror Repeat -3">
            <g class="cls-69">
              <g>
                <path class="cls-24" d="M60,78.4c-.3-3.4-1.3-5.8-2.5-7.5-2.6-1.3-6.1-2.3-9.7-1.3-1.5.4-2.8.9-3.9,1.6-2.3,2.4-4,5.6-3.4,9.5,1.7,0,2.1.8,3.5,2,2.1,1,3.8,2.8,9.6.2,3.5-1.5,5.1,0,5.9,1.5.5-1.6.8-3.5.6-5.9h0Z"/>
                <path class="cls-18" d="M37.3,81.2c0,4.1,4.3,8.9,10.9,9-3.2-1.3-6.7-3.9-7.8-9.2,0-.1,0-.3,0-.4,0,0-.1,0-.2,0-1,0-2,.2-2.9.6Z"/>
                <path class="cls-16" d="M43.8,71.1c-4.6,2.5-6.4,6.7-6.5,10v.2c.9-.4,1.9-.7,2.9-.6,0,0,.1,0,.2,0-.6-4,1.1-7.2,3.4-9.6h0Z"/>
                <path class="cls-27" d="M48.7,73.7s.2-3.6,3.3-3.5,3.8,3.2,3.7,4-.8,3-3,3.2-3.9-1.7-4.1-3.7h0Z"/>
                <path class="cls-20" d="M58.8,83.4c-.9-1.2-2.5-2-5.4-.7-5.9,2.6-7.5.9-9.6-.2-1.3-1.2-1.8-1.9-3.5-2,0,.2,0,.3,0,.5,1,5.3,4.5,7.9,7.8,9.2h.1c1.1,0,2.2,0,3.3-.1h0c4.6-1.2,6.5-4.5,7.2-6.7h0Z"/>
                <path class="cls-24" d="M58.8,83.4c-.8,2.2-2.7,5.4-7.2,6.7h0c-1.3.2-2.2.1-3.3.1-6.8,0-11.1-5-11-9.2s2.8-9.5,10.4-11.6c3.7-1,7.1,0,9.7,1.3-3.6-5-9.6-4.2-9.6-4.2,0,0-12.4,0-13.2,12.6-.6,12.9,13.2,12.6,13.2,12.6,0,0,3.6,0,6.9-2,1.9-1.1,3.7-2.8,4.6-5.5-.2-.3-.3-.6-.5-.8h0Z"/>
              </g>
            </g>
          </g>
          <g id="_Mirror_Repeat_-4-3" data-name=" Mirror Repeat -4">
            <g class="cls-65">
              <g>
                <path class="cls-24" d="M77.6,78.4c.3-3.4,1.3-5.8,2.5-7.5,2.6-1.3,6.1-2.3,9.7-1.3,1.5.4,2.8.9,3.9,1.6,2.3,2.4,4,5.6,3.4,9.5-1.7,0-2.1.8-3.5,2-2.1,1-3.8,2.8-9.6.2-3.5-1.5-5.1,0-5.9,1.5-.6-1.6-.8-3.5-.6-5.9h0Z"/>
                <path class="cls-18" d="M100.3,81.2c0,4.1-4.3,8.9-10.9,9,3.2-1.3,6.7-3.9,7.8-9.2,0-.1,0-.3,0-.4,0,0,.1,0,.2,0,1,0,2,.2,2.9.6Z"/>
                <path class="cls-21" d="M93.8,71.1c4.7,2.5,6.4,6.7,6.5,10v.2c-.9-.4-1.9-.7-2.9-.6,0,0-.1,0-.2,0,.6-4-1.1-7.2-3.4-9.6h0Z"/>
                <path class="cls-27" d="M88.9,73.7s-.2-3.6-3.3-3.5-3.8,3.2-3.7,4,.8,3,3,3.2,3.9-1.7,4.1-3.7h0Z"/>
                <path class="cls-32" d="M78.7,83.4c.9-1.2,2.5-2,5.4-.7,5.9,2.6,7.5.9,9.6-.2,1.3-1.2,1.8-1.9,3.5-2,0,.2,0,.3,0,.5-1,5.3-4.6,7.9-7.8,9.2h-.1c-1.1,0-2.2,0-3.3-.1h0c-4.6-1.2-6.5-4.5-7.2-6.7h0Z"/>
                <path class="cls-24" d="M78.7,83.4c.8,2.2,2.7,5.4,7.2,6.7h0c1.3.2,2.2.1,3.3.1,6.8,0,11.2-5,11-9.2s-2.8-9.5-10.4-11.6c-3.7-1-7.1,0-9.7,1.3,3.6-5,9.6-4.2,9.6-4.2,0,0,12.4,0,13.2,12.6.6,12.9-13.2,12.6-13.2,12.6,0,0-3.6,0-6.9-2-1.9-1.1-3.7-2.8-4.6-5.5.2-.3.3-.6.5-.8h0Z"/>
              </g>
            </g>
          </g>
        </g>
      </g>
      <g>
        <path class="cls-42" d="M68.7,88.6s.2,4.2,5,5.4c3,.9,4.4-1.6,4.4-1.6"/>
        <path class="cls-42" d="M60.6,93s3.8,4,8.3-3.4"/>
      </g>
      <g>
        <path class="cls-39" d="M81.2,61.7s2.6-1.5,7.9-2.4"/>
        <path class="cls-39" d="M57.6,60.8s-2.5-1.5-7.9-2.4"/>
      </g>
      <circle class="cls-5" cx="89.1" cy="78.1" r="1.6"/>
      <circle class="cls-5" cx="49" cy="79.2" r="1.6"/>
    </g>
    <g id="suspicious">
      <g id="_Mirror_Repeat_-3-4" data-name=" Mirror Repeat -3">
        <g class="cls-76">
          <g>
            <path class="cls-24" d="M60,78.4c-.3-3.4-1.1-3.9-2.3-5.7-2.8-.5-8.2-2.7-10.8-2.7-1.5.4-1.9.5-3.1,1.1-2.3,2.4-4,5.6-3.4,9.5,1.7,0,2.1.8,3.5,2,2.1,1,3.8,2.8,9.6.2,3.5-1.5,5.1,0,5.9,1.5.5-1.6.8-3.5.6-5.9h0Z"/>
            <path class="cls-18" d="M37.3,81.2c0,4.1,4.3,8.9,10.9,9-3.2-1.3-6.7-3.9-7.8-9.2,0-.1,0-.3,0-.4,0,0-.1,0-.2,0-1,0-2,.2-2.9.6Z"/>
            <path class="cls-16" d="M43.8,71.1c-4.6,2.5-6.4,6.7-6.5,10v.2c.9-.4,1.9-.7,2.9-.6,0,0,.1,0,.2,0-.6-4,1.1-7.2,3.4-9.6h0Z"/>
            <path class="cls-27" d="M52.2,77.4s.2-3.6,3.3-3.5,3.8,3.2,3.7,4-.8,3-3,3.2-3.9-1.7-4.1-3.7h0Z"/>
            <path class="cls-20" d="M58.8,83.4c-.9-1.2-2.5-2-5.4-.7-5.9,2.6-7.5.9-9.6-.2-1.3-1.2-1.8-1.9-3.5-2,0,.2,0,.3,0,.5,1,5.3,4.5,7.9,7.8,9.2h.1c1.1,0,2.2,0,3.3-.1h0c4.6-1.2,6.5-4.5,7.2-6.7h0Z"/>
            <path class="cls-24" d="M58.8,83.4c-.8,2.2-2.7,5.4-7.2,6.7h0c-1.3.2-2.2.1-3.3.1-6.8,0-11.1-5-11-9.2s2.8-9.4,8.2-10c3.7-1,8.7.5,11.4,1.8-6.2-2.9-12.7-3.8-12.7-3.8,0,0-8.6-2.5-9.5,10.1-.6,12.9,13.2,12.6,13.2,12.6,0,0,3.6,0,6.9-2,1.9-1.1,3.7-2.8,4.6-5.5-.2-.3-.3-.6-.5-.8h0Z"/>
          </g>
        </g>
      </g>
      <g class="cls-37">
        <g>
          <path class="cls-24" d="M77.6,78.4c.3-3.4,1.5-4.4,2.8-6.1,3.2-.5,6.2-1,9.9-2.6,1.5.4,2.4.8,3.5,1.4,2.3,2.4,4,5.6,3.4,9.5-1.7,0-2.1.8-3.5,2-2.1,1-3.8,2.8-9.6.2-3.5-1.5-5.1,0-5.9,1.5-.6-1.6-.8-3.5-.6-5.9h0Z"/>
          <path class="cls-18" d="M100.3,81.2c0,4.1-4.3,8.9-10.9,9,3.2-1.3,6.7-3.9,7.8-9.2,0-.1,0-.3,0-.4,0,0,.1,0,.2,0,1,0,2,.2,2.9.6Z"/>
          <path class="cls-21" d="M93.8,71.1c4.7,2.5,6.4,6.7,6.5,10v.2c-.9-.4-1.9-.7-2.9-.6,0,0-.1,0-.2,0,.6-4-1.1-7.2-3.4-9.6h0Z"/>
          <path class="cls-27" d="M86,75s-.1-3-3.2-2.9-3.9,2.5-3.8,3.4.8,3,3,3.2,3.9-1.7,4.1-3.7h0Z"/>
          <path class="cls-32" d="M78.7,83.4c.9-1.2,2.5-2,5.4-.7,5.9,2.6,7.5.9,9.6-.2,1.3-1.2,1.8-1.9,3.5-2,0,.2,0,.3,0,.5-1,5.3-4.6,7.9-7.8,9.2h-.1c-1.1,0-2.2,0-3.3-.1h0c-4.6-1.2-6.5-4.5-7.2-6.7h0Z"/>
          <path class="cls-24" d="M78.7,83.4c.8,2.2,2.7,5.4,7.2,6.7h0c1.3.2,2.2.1,3.3.1,6.8,0,11.2-5,11-9.2s-1.2-8.8-7.2-10.9c-1.4-.5-10.7,2.1-13.3,3.4,3.7-3.2,12.8-4.4,12.8-4.4,0,0,9.5-2.6,10.3,10,.6,12.9-13.2,12.6-13.2,12.6,0,0-3.6,0-6.9-2-1.9-1.1-3.7-2.8-4.6-5.5.2-.3.3-.6.5-.8h0Z"/>
        </g>
      </g>
      <g>
        <path class="cls-42" d="M68.7,88.6s.2,4.2,5,5.4c3,.9,4.4-1.6,4.4-1.6"/>
        <path class="cls-42" d="M60.6,93s3.8,4,8.3-3.4"/>
      </g>
      <g>
        <path class="cls-39" d="M81.2,61.7s2.6-1.5,7.9-2.4"/>
        <path class="cls-39" d="M57.6,60.8s-2.5-1.5-7.9-2.4"/>
      </g>
      <circle class="cls-5" cx="89.1" cy="78.1" r="1.6"/>
      <circle class="cls-5" cx="49" cy="79.2" r="1.6"/>
      <path class="cls-39" d="M78.1,73.6s22.7-4.7,24.5-5.2"/>
      <path class="cls-39" d="M60.2,74.4s-21.3-5.2-22.9-5.7"/>
    </g>
    <g id="angry" class="cls-74">
      <g id="ojos-4" data-name="ojos">
        <g>
          <g id="_Mirror_Repeat_-3-5" data-name=" Mirror Repeat -3">
            <g class="cls-63">
              <g>
                <path class="cls-24" d="M60,78.4c-.3-3.4-1.3-5.8-2.5-7.5-2.6-1.3-6.1-2.3-9.7-1.3-1.5.4-2.8.9-3.9,1.6-2.3,2.4-4,5.6-3.4,9.5,1.7,0,2.1.8,3.5,2,2.1,1,3.8,2.8,9.6.2,3.5-1.5,5.1,0,5.9,1.5.5-1.6.8-3.5.6-5.9h0Z"/>
                <path class="cls-18" d="M37.3,81.2c0,4.1,4.3,8.9,10.9,9-3.2-1.3-6.7-3.9-7.8-9.2,0-.1,0-.3,0-.4,0,0-.1,0-.2,0-1,0-2,.2-2.9.6Z"/>
                <path class="cls-16" d="M43.8,71.1c-4.6,2.5-6.4,6.7-6.5,10v.2c.9-.4,1.9-.7,2.9-.6,0,0,.1,0,.2,0-.6-4,1.1-7.2,3.4-9.6h0Z"/>
                <path class="cls-27" d="M48.7,73.7s.2-3.6,3.3-3.5,3.8,3.2,3.7,4-.8,3-3,3.2-3.9-1.7-4.1-3.7h0Z"/>
                <path class="cls-20" d="M58.8,83.4c-.9-1.2-2.5-2-5.4-.7-5.9,2.6-7.5.9-9.6-.2-1.3-1.2-1.8-1.9-3.5-2,0,.2,0,.3,0,.5,1,5.3,4.5,7.9,7.8,9.2h.1c1.1,0,2.2,0,3.3-.1h0c4.6-1.2,6.5-4.5,7.2-6.7h0Z"/>
                <path class="cls-24" d="M58.8,83.4c-.8,2.2-2.7,5.4-7.2,6.7h0c-1.3.2-2.2.1-3.3.1-6.8,0-11.1-5-11-9.2s2.8-9.5,10.4-11.6c3.7-1,7.1,0,9.7,1.3-3.6-5-9.6-4.2-9.6-4.2,0,0-12.4,0-13.2,12.6-.6,12.9,13.2,12.6,13.2,12.6,0,0,3.6,0,6.9-2,1.9-1.1,3.7-2.8,4.6-5.5-.2-.3-.3-.6-.5-.8h0Z"/>
              </g>
            </g>
          </g>
          <g id="_Mirror_Repeat_-4-4" data-name=" Mirror Repeat -4">
            <g class="cls-55">
              <g>
                <path class="cls-24" d="M77.6,78.4c.3-3.4,1.3-5.8,2.5-7.5,2.6-1.3,6.1-2.3,9.7-1.3,1.5.4,2.8.9,3.9,1.6,2.3,2.4,4,5.6,3.4,9.5-1.7,0-2.1.8-3.5,2-2.1,1-3.8,2.8-9.6.2-3.5-1.5-5.1,0-5.9,1.5-.6-1.6-.8-3.5-.6-5.9h0Z"/>
                <path class="cls-18" d="M100.3,81.2c0,4.1-4.3,8.9-10.9,9,3.2-1.3,6.7-3.9,7.8-9.2,0-.1,0-.3,0-.4,0,0,.1,0,.2,0,1,0,2,.2,2.9.6Z"/>
                <path class="cls-21" d="M93.8,71.1c4.7,2.5,6.4,6.7,6.5,10v.2c-.9-.4-1.9-.7-2.9-.6,0,0-.1,0-.2,0,.6-4-1.1-7.2-3.4-9.6h0Z"/>
                <path class="cls-27" d="M88.9,73.7s-.2-3.6-3.3-3.5-3.8,3.2-3.7,4,.8,3,3,3.2,3.9-1.7,4.1-3.7h0Z"/>
                <path class="cls-32" d="M78.7,83.4c.9-1.2,2.5-2,5.4-.7,5.9,2.6,7.5.9,9.6-.2,1.3-1.2,1.8-1.9,3.5-2,0,.2,0,.3,0,.5-1,5.3-4.6,7.9-7.8,9.2h-.1c-1.1,0-2.2,0-3.3-.1h0c-4.6-1.2-6.5-4.5-7.2-6.7h0Z"/>
                <path class="cls-24" d="M78.7,83.4c.8,2.2,2.7,5.4,7.2,6.7h0c1.3.2,2.2.1,3.3.1,6.8,0,11.2-5,11-9.2s-2.8-9.5-10.4-11.6c-3.7-1-7.1,0-9.7,1.3,3.6-5,9.6-4.2,9.6-4.2,0,0,12.4,0,13.2,12.6.6,12.9-13.2,12.6-13.2,12.6,0,0-3.6,0-6.9-2-1.9-1.1-3.7-2.8-4.6-5.5.2-.3.3-.6.5-.8h0Z"/>
              </g>
            </g>
          </g>
        </g>
      </g>
      <g>
        <path class="cls-39" d="M75.9,68.4s1.8,4.3,7.8-.5,6.5-7.1,6.5-7.1"/>
        <path class="cls-39" d="M62.5,68.3s-3.3,7.7-14-7.6"/>
      </g>
      <g>
        <path class="cls-42" d="M61,96.8s3.1-5.3,8.1-5.4,7.6,5.4,7.6,5.4"/>
        <line class="cls-42" x1="68.9" y1="89" x2="68.7" y2="91.4"/>
      </g>
    </g>
    <g id="offended" class="cls-74">
      <g id="ojos-5" data-name="ojos">
        <g>
          <g id="_Mirror_Repeat_-3-6" data-name=" Mirror Repeat -3">
            <g class="cls-71">
              <g>
                <path class="cls-24" d="M60,78.4c-.3-3.4-1.3-5.8-2.5-7.5-2.6-1.3-6.1-2.3-9.7-1.3-1.5.4-2.8.9-3.9,1.6-2.3,2.4-4,5.6-3.4,9.5,1.7,0,2.1.8,3.5,2,2.1,1,3.8,2.8,9.6.2,3.5-1.5,5.1,0,5.9,1.5.5-1.6.8-3.5.6-5.9h0Z"/>
                <path class="cls-18" d="M37.3,81.2c0,4.1,4.3,8.9,10.9,9-3.2-1.3-6.7-3.9-7.8-9.2,0-.1,0-.3,0-.4,0,0-.1,0-.2,0-1,0-2,.2-2.9.6Z"/>
                <path class="cls-16" d="M43.8,71.1c-4.6,2.5-6.4,6.7-6.5,10v.2c.9-.4,1.9-.7,2.9-.6,0,0,.1,0,.2,0-.6-4,1.1-7.2,3.4-9.6h0Z"/>
                <path class="cls-27" d="M48.7,73.7s.2-3.6,3.3-3.5,3.8,3.2,3.7,4-.8,3-3,3.2-3.9-1.7-4.1-3.7h0Z"/>
                <path class="cls-20" d="M58.8,83.4c-.9-1.2-2.5-2-5.4-.7-5.9,2.6-7.5.9-9.6-.2-1.3-1.2-1.8-1.9-3.5-2,0,.2,0,.3,0,.5,1,5.3,4.5,7.9,7.8,9.2h.1c1.1,0,2.2,0,3.3-.1h0c4.6-1.2,6.5-4.5,7.2-6.7h0Z"/>
                <path class="cls-24" d="M58.8,83.4c-.8,2.2-2.7,5.4-7.2,6.7h0c-1.3.2-2.2.1-3.3.1-6.8,0-11.1-5-11-9.2s2.8-9.5,10.4-11.6c3.7-1,7.1,0,9.7,1.3-8.7-3.1-9.6-4.2-9.6-4.2,0,0-12.4,0-13.2,12.6-.6,12.9,13.2,12.6,13.2,12.6,0,0,3.6,0,6.9-2,1.9-1.1,3.7-2.8,4.6-5.5-.2-.3-.3-.6-.5-.8h0Z"/>
              </g>
            </g>
          </g>
          <g id="_Mirror_Repeat_-4-5" data-name=" Mirror Repeat -4">
            <g class="cls-57">
              <g>
                <path class="cls-24" d="M77.6,78.4c.3-3.4,1.3-5.8,2.5-7.5,2.6-1.3,6.1-2.3,9.7-1.3,1.5.4,2.8.9,3.9,1.6,2.3,2.4,4,5.6,3.4,9.5-1.7,0-2.1.8-3.5,2-2.1,1-3.8,2.8-9.6.2-3.5-1.5-5.1,0-5.9,1.5-.6-1.6-.8-3.5-.6-5.9h0Z"/>
                <path class="cls-18" d="M100.3,81.2c0,4.1-4.3,8.9-10.9,9,3.2-1.3,6.7-3.9,7.8-9.2,0-.1,0-.3,0-.4,0,0,.1,0,.2,0,1,0,2,.2,2.9.6Z"/>
                <path class="cls-21" d="M93.8,71.1c4.7,2.5,6.4,6.7,6.5,10v.2c-.9-.4-1.9-.7-2.9-.6,0,0-.1,0-.2,0,.6-4-1.1-7.2-3.4-9.6h0Z"/>
                <path class="cls-27" d="M88.9,73.7s-.2-3.6-3.3-3.5-3.8,3.2-3.7,4,.8,3,3,3.2,3.9-1.7,4.1-3.7h0Z"/>
                <path class="cls-32" d="M78.7,83.4c.9-1.2,2.5-2,5.4-.7,5.9,2.6,7.5.9,9.6-.2,1.3-1.2,1.8-1.9,3.5-2,0,.2,0,.3,0,.5-1,5.3-4.6,7.9-7.8,9.2h-.1c-1.1,0-2.2,0-3.3-.1h0c-4.6-1.2-6.5-4.5-7.2-6.7h0Z"/>
                <path class="cls-24" d="M78.7,83.4c.8,2.2,2.7,5.4,7.2,6.7h0c1.3.2,2.2.1,3.3.1,6.8,0,11.2-5,11-9.2s-2.8-9.5-10.4-11.6c-3.7-1-7.1,0-9.7,1.3,8.3-3.5,9.6-4.2,9.6-4.2,0,0,12.4,0,13.2,12.6.6,12.9-13.2,12.6-13.2,12.6,0,0-3.6,0-6.9-2-1.9-1.1-3.7-2.8-4.6-5.5.2-.3.3-.6.5-.8h0Z"/>
              </g>
            </g>
          </g>
        </g>
      </g>
      <g>
        <path class="cls-39" d="M75.9,68.4s1.1,5,7.9,1.6,15.4-4.7,15.4-4.7"/>
        <path class="cls-39" d="M62.5,68.3s-3.4,7.2-21.8-4.3"/>
      </g>
      <g>
        <path class="cls-42" d="M61,96.8s3.1-5.3,8.1-5.4,7.6,5.4,7.6,5.4"/>
        <line class="cls-42" x1="68.9" y1="89" x2="68.7" y2="91.4"/>
      </g>
      <g>
        <path class="cls-42" d="M55.7,46.5s-2.1,2.3,0,4.7,2.4,2.2,2.4,2.2"/>
        <path class="cls-42" d="M48.9,47.6s1.9,1.9.5,4.2-4.4,2.3-4.4,2.3"/>
        <path class="cls-42" d="M55.7,57s-1-2.7-3.9-1.8-3.2,3.6-3.2,3.6"/>
      </g>
    </g>
    <g id="annoyed" class="cls-74">
      <g id="ojos-6" data-name="ojos">
        <g>
          <g id="_Mirror_Repeat_-3-7" data-name=" Mirror Repeat -3">
            <g class="cls-38">
              <g>
                <path class="cls-24" d="M60,78.4c-.3-3.4-1.3-5.8-2.5-7.5-2.6-1.3-6.1-2.3-9.7-1.3-1.5.4-2.8.9-3.9,1.6-2.3,2.4-4,5.6-3.4,9.5,1.7,0,2.1.8,3.5,2,2.1,1,3.8,2.8,9.6.2,3.5-1.5,5.1,0,5.9,1.5.5-1.6.8-3.5.6-5.9h0Z"/>
                <path class="cls-18" d="M37.3,81.2c0,4.1,4.3,8.9,10.9,9-3.2-1.3-6.7-3.9-7.8-9.2,0-.1,0-.3,0-.4,0,0-.1,0-.2,0-1,0-2,.2-2.9.6Z"/>
                <path class="cls-16" d="M43.8,71.1c-4.6,2.5-6.4,6.7-6.5,10v.2c.9-.4,1.9-.7,2.9-.6,0,0,.1,0,.2,0-.6-4,1.1-7.2,3.4-9.6h0Z"/>
                <path class="cls-27" d="M48.7,73.7s.2-3.6,3.3-3.5,3.8,3.2,3.7,4-.8,3-3,3.2-3.9-1.7-4.1-3.7h0Z"/>
                <path class="cls-20" d="M58.8,83.4c-.9-1.2-2.5-2-5.4-.7-5.9,2.6-7.5.9-9.6-.2-1.3-1.2-1.8-1.9-3.5-2,0,.2,0,.3,0,.5,1,5.3,4.5,7.9,7.8,9.2h.1c1.1,0,2.2,0,3.3-.1h0c4.6-1.2,6.5-4.5,7.2-6.7h0Z"/>
                <path class="cls-24" d="M58.8,83.4c-.8,2.2-2.7,5.4-7.2,6.7h0c-1.3.2-2.2.1-3.3.1-6.8,0-11.1-5-11-9.2s2.8-9.5,10.4-11.6c3.7-1,7.1,0,9.7,1.3-3.6-5-9.6-4.2-9.6-4.2,0,0-12.4,0-13.2,12.6-.6,12.9,13.2,12.6,13.2,12.6,0,0,3.6,0,6.9-2,1.9-1.1,3.7-2.8,4.6-5.5-.2-.3-.3-.6-.5-.8h0Z"/>
              </g>
            </g>
          </g>
          <g id="_Mirror_Repeat_-4-6" data-name=" Mirror Repeat -4">
            <g class="cls-72">
              <g>
                <path class="cls-24" d="M77.6,78.4c.3-3.4,1.3-5.8,2.5-7.5,2.6-1.3,6.1-2.3,9.7-1.3,1.5.4,2.8.9,3.9,1.6,2.3,2.4,4,5.6,3.4,9.5-1.7,0-2.1.8-3.5,2-2.1,1-3.8,2.8-9.6.2-3.5-1.5-5.1,0-5.9,1.5-.6-1.6-.8-3.5-.6-5.9h0Z"/>
                <path class="cls-18" d="M100.3,81.2c0,4.1-4.3,8.9-10.9,9,3.2-1.3,6.7-3.9,7.8-9.2,0-.1,0-.3,0-.4,0,0,.1,0,.2,0,1,0,2,.2,2.9.6Z"/>
                <path class="cls-21" d="M93.8,71.1c4.7,2.5,6.4,6.7,6.5,10v.2c-.9-.4-1.9-.7-2.9-.6,0,0-.1,0-.2,0,.6-4-1.1-7.2-3.4-9.6h0Z"/>
                <path class="cls-27" d="M88.9,73.7s-.2-3.6-3.3-3.5-3.8,3.2-3.7,4,.8,3,3,3.2,3.9-1.7,4.1-3.7h0Z"/>
                <path class="cls-32" d="M78.7,83.4c.9-1.2,2.5-2,5.4-.7,5.9,2.6,7.5.9,9.6-.2,1.3-1.2,1.8-1.9,3.5-2,0,.2,0,.3,0,.5-1,5.3-4.6,7.9-7.8,9.2h-.1c-1.1,0-2.2,0-3.3-.1h0c-4.6-1.2-6.5-4.5-7.2-6.7h0Z"/>
                <path class="cls-24" d="M78.7,83.4c.8,2.2,2.7,5.4,7.2,6.7h0c1.3.2,2.2.1,3.3.1,6.8,0,11.2-5,11-9.2s-2.8-9.5-10.4-11.6c-3.7-1-7.1,0-9.7,1.3,3.6-5,9.6-4.2,9.6-4.2,0,0,12.4,0,13.2,12.6.6,12.9-13.2,12.6-13.2,12.6,0,0-3.6,0-6.9-2-1.9-1.1-3.7-2.8-4.6-5.5.2-.3.3-.6.5-.8h0Z"/>
              </g>
            </g>
          </g>
        </g>
      </g>
      <g>
        <path class="cls-39" d="M75.9,68.4s1.8,4.3,7.8-.5,6.5-7.1,6.5-7.1"/>
        <path class="cls-39" d="M62.5,68.3s-3.3,7.7-14-7.6"/>
      </g>
      <g>
        <g>
          <path class="cls-8" d="M76,94.2c-1.1-1.3-4.6-2.5-6.8-2.5s-3.8.4-6.8,2.1c0,0-5,3.3-3.2,7.2,0,.1.1.2.2.3,1-1.8,3.6-5.1,9.4-5.2,4.6-.1,5.8.5,8.2,5.4.5,0,1,0,1.4-.3,2-1.2-1.2-5.6-2.3-6.9Z"/>
          <path class="cls-12" d="M68.8,96c-5.8.1-8.4,3.4-9.4,5.2,1.2,1.3,5.3-1.9,5.3-1.9,0,0,1.4-1.3,4.5-.9s4,1.2,4,1.2c0,0,2,1.6,3.8,1.7-2.4-4.9-3.6-5.5-8.2-5.4Z"/>
          <g>
            <path class="cls-51" d="M72.1,92.3s-.6,2.5,1.3,3.1,2-1.7,2-1.7c0,0-1.4-1.2-3.3-1.4Z"/>
            <path class="cls-51" d="M62.7,93.2s-.3,1.9,1.6,2.1,2.3-3.3,2.3-3.3c0,0-1.4-.2-3.9,1.2Z"/>
          </g>
        </g>
        <path class="cls-42" d="M62.4,93.7s-5,3.3-3.2,7.2c.8,2,5.5-1.5,5.5-1.5,0,0,1.4-1.3,4.5-.9s4,1.2,4,1.2c0,0,3.2,2.6,5.1,1.4s-1.2-5.6-2.3-6.9-4.6-2.5-6.8-2.5-3.8.4-6.8,2.1Z"/>
      </g>
      <path class="cls-43" d="M72.9,66s-1.3,1.8-.5,3.6,1.5,1.9,1.5,1.9"/>
      <path class="cls-43" d="M65.6,66s1.2,1.5.8,2.8-2.2,3.7-2.2,3.7"/>
    </g>
    <g id="proud" class="cls-74">
      <g id="ojos-7" data-name="ojos">
        <g>
          <g id="_Mirror_Repeat_-3-8" data-name=" Mirror Repeat -3">
            <g class="cls-70">
              <g>
                <path class="cls-24" d="M60,78.4c-.3-3.4-1.3-5.8-2.5-7.5-2.6-1.3-6.1-2.3-9.7-1.3-1.5.4-2.8.9-3.9,1.6-2.3,2.4-4,5.6-3.4,9.5,1.7,0,2.1.8,3.5,2,2.1,1,3.8,2.8,9.6.2,3.5-1.5,5.1,0,5.9,1.5.5-1.6.8-3.5.6-5.9h0Z"/>
                <path class="cls-18" d="M37.3,81.2c0,4.1,4.3,8.9,10.9,9-3.2-1.3-6.7-3.9-7.8-9.2,0-.1,0-.3,0-.4,0,0-.1,0-.2,0-1,0-2,.2-2.9.6Z"/>
                <path class="cls-16" d="M43.8,71.1c-4.6,2.5-6.4,6.7-6.5,10v.2c.9-.4,1.9-.7,2.9-.6,0,0,.1,0,.2,0-.6-4,1.1-7.2,3.4-9.6h0Z"/>
                <path class="cls-27" d="M48.7,73.7s.2-3.6,3.3-3.5,3.8,3.2,3.7,4-.8,3-3,3.2-3.9-1.7-4.1-3.7h0Z"/>
                <path class="cls-20" d="M58.8,83.4c-.9-1.2-2.5-2-5.4-.7-5.9,2.6-7.5.9-9.6-.2-1.3-1.2-1.8-1.9-3.5-2,0,.2,0,.3,0,.5,1,5.3,4.5,7.9,7.8,9.2h.1c1.1,0,2.2,0,3.3-.1h0c4.6-1.2,6.5-4.5,7.2-6.7h0Z"/>
                <path class="cls-24" d="M58.8,83.4c-.8,2.2-2.7,5.4-7.2,6.7h0c-1.3.2-2.2.1-3.3.1-6.8,0-11.1-5-11-9.2s2.8-9.5,10.4-11.6c3.7-1,7.1,0,9.7,1.3-3.6-5-9.6-4.2-9.6-4.2,0,0-12.4,0-13.2,12.6-.6,12.9,13.2,12.6,13.2,12.6,0,0,3.6,0,6.9-2,1.9-1.1,3.7-2.8,4.6-5.5-.2-.3-.3-.6-.5-.8h0Z"/>
              </g>
            </g>
          </g>
          <g id="_Mirror_Repeat_-4-7" data-name=" Mirror Repeat -4">
            <g class="cls-67">
              <g>
                <path class="cls-24" d="M77.6,78.4c.3-3.4,1.3-5.8,2.5-7.5,2.6-1.3,6.1-2.3,9.7-1.3,1.5.4,2.8.9,3.9,1.6,2.3,2.4,4,5.6,3.4,9.5-1.7,0-2.1.8-3.5,2-2.1,1-3.8,2.8-9.6.2-3.5-1.5-5.1,0-5.9,1.5-.6-1.6-.8-3.5-.6-5.9h0Z"/>
                <path class="cls-18" d="M100.3,81.2c0,4.1-4.3,8.9-10.9,9,3.2-1.3,6.7-3.9,7.8-9.2,0-.1,0-.3,0-.4,0,0,.1,0,.2,0,1,0,2,.2,2.9.6Z"/>
                <path class="cls-21" d="M93.8,71.1c4.7,2.5,6.4,6.7,6.5,10v.2c-.9-.4-1.9-.7-2.9-.6,0,0-.1,0-.2,0,.6-4-1.1-7.2-3.4-9.6h0Z"/>
                <path class="cls-27" d="M88.9,73.7s-.2-3.6-3.3-3.5-3.8,3.2-3.7,4,.8,3,3,3.2,3.9-1.7,4.1-3.7h0Z"/>
                <path class="cls-32" d="M78.7,83.4c.9-1.2,2.5-2,5.4-.7,5.9,2.6,7.5.9,9.6-.2,1.3-1.2,1.8-1.9,3.5-2,0,.2,0,.3,0,.5-1,5.3-4.6,7.9-7.8,9.2h-.1c-1.1,0-2.2,0-3.3-.1h0c-4.6-1.2-6.5-4.5-7.2-6.7h0Z"/>
                <path class="cls-24" d="M78.7,83.4c.8,2.2,2.7,5.4,7.2,6.7h0c1.3.2,2.2.1,3.3.1,6.8,0,11.2-5,11-9.2s-2.8-9.5-10.4-11.6c-3.7-1-7.1,0-9.7,1.3,3.6-5,9.6-4.2,9.6-4.2,0,0,12.4,0,13.2,12.6.6,12.9-13.2,12.6-13.2,12.6,0,0-3.6,0-6.9-2-1.9-1.1-3.7-2.8-4.6-5.5.2-.3.3-.6.5-.8h0Z"/>
              </g>
            </g>
          </g>
        </g>
      </g>
      <g>
        <path class="cls-39" d="M81.2,61.7s2.6-1.5,7.9-2.4"/>
        <path class="cls-39" d="M57.6,60.8s-2.5-1.5-7.9-2.4"/>
      </g>
      <path class="cls-42" d="M55.2,95.4s1,1.9,5.8,0,7.6-1.7,7.6-1.7c0,0,.7-.7,9.3,2.6,2.4,1.3,4.9-.6,4.9-.6"/>
    </g>
    <g id="confused" class="cls-74">
      <g id="ojos-8" data-name="ojos">
        <g>
          <g id="_Mirror_Repeat_-3-9" data-name=" Mirror Repeat -3">
            <g class="cls-36">
              <g>
                <path class="cls-24" d="M60,78.4c-.3-3.4-1.3-5.8-2.5-7.5-2.6-1.3-6.1-2.3-9.7-1.3-1.5.4-2.8.9-3.9,1.6-2.3,2.4-4,5.6-3.4,9.5,1.7,0,2.1.8,3.5,2,2.1,1,3.8,2.8,9.6.2,3.5-1.5,5.1,0,5.9,1.5.5-1.6.8-3.5.6-5.9h0Z"/>
                <path class="cls-18" d="M37.3,81.2c0,4.1,4.3,8.9,10.9,9-3.2-1.3-6.7-3.9-7.8-9.2,0-.1,0-.3,0-.4,0,0-.1,0-.2,0-1,0-2,.2-2.9.6Z"/>
                <path class="cls-16" d="M43.8,71.1c-4.6,2.5-6.4,6.7-6.5,10v.2c.9-.4,1.9-.7,2.9-.6,0,0,.1,0,.2,0-.6-4,1.1-7.2,3.4-9.6h0Z"/>
                <path class="cls-27" d="M48.7,73.7s.2-3.6,3.3-3.5,3.8,3.2,3.7,4-.8,3-3,3.2-3.9-1.7-4.1-3.7h0Z"/>
                <path class="cls-20" d="M58.8,83.4c-.9-1.2-2.5-2-5.4-.7-5.9,2.6-7.5.9-9.6-.2-1.3-1.2-1.8-1.9-3.5-2,0,.2,0,.3,0,.5,1,5.3,4.5,7.9,7.8,9.2h.1c1.1,0,2.2,0,3.3-.1h0c4.6-1.2,6.5-4.5,7.2-6.7h0Z"/>
                <path class="cls-24" d="M58.8,83.4c-.8,2.2-2.7,5.4-7.2,6.7h0c-1.3.2-2.2.1-3.3.1-6.8,0-11.1-5-11-9.2s2.8-9.5,10.4-11.6c3.7-1,7.1,0,9.7,1.3-3.6-5-9.6-4.2-9.6-4.2,0,0-12.4,0-13.2,12.6-.6,12.9,13.2,12.6,13.2,12.6,0,0,3.6,0,6.9-2,1.9-1.1,3.7-2.8,4.6-5.5-.2-.3-.3-.6-.5-.8h0Z"/>
              </g>
            </g>
          </g>
          <g id="_Mirror_Repeat_-4-8" data-name=" Mirror Repeat -4">
            <g class="cls-60">
              <g>
                <path class="cls-24" d="M77.6,78.4c.3-3.4,1.3-5.8,2.5-7.5,2.6-1.3,6.1-2.3,9.7-1.3,1.5.4,2.8.9,3.9,1.6,2.3,2.4,4,5.6,3.4,9.5-1.7,0-2.1.8-3.5,2-2.1,1-3.8,2.8-9.6.2-3.5-1.5-5.1,0-5.9,1.5-.6-1.6-.8-3.5-.6-5.9h0Z"/>
                <path class="cls-18" d="M100.3,81.2c0,4.1-4.3,8.9-10.9,9,3.2-1.3,6.7-3.9,7.8-9.2,0-.1,0-.3,0-.4,0,0,.1,0,.2,0,1,0,2,.2,2.9.6Z"/>
                <path class="cls-21" d="M93.8,71.1c4.7,2.5,6.4,6.7,6.5,10v.2c-.9-.4-1.9-.7-2.9-.6,0,0-.1,0-.2,0,.6-4-1.1-7.2-3.4-9.6h0Z"/>
                <path class="cls-27" d="M88.9,73.7s-.2-3.6-3.3-3.5-3.8,3.2-3.7,4,.8,3,3,3.2,3.9-1.7,4.1-3.7h0Z"/>
                <path class="cls-32" d="M78.7,83.4c.9-1.2,2.5-2,5.4-.7,5.9,2.6,7.5.9,9.6-.2,1.3-1.2,1.8-1.9,3.5-2,0,.2,0,.3,0,.5-1,5.3-4.6,7.9-7.8,9.2h-.1c-1.1,0-2.2,0-3.3-.1h0c-4.6-1.2-6.5-4.5-7.2-6.7h0Z"/>
                <path class="cls-24" d="M78.7,83.4c.8,2.2,2.7,5.4,7.2,6.7h0c1.3.2,2.2.1,3.3.1,6.8,0,11.2-5,11-9.2s-2.8-9.5-10.4-11.6c-3.7-1-7.1,0-9.7,1.3,3.6-5,9.6-4.2,9.6-4.2,0,0,12.4,0,13.2,12.6.6,12.9-13.2,12.6-13.2,12.6,0,0-3.6,0-6.9-2-1.9-1.1-3.7-2.8-4.6-5.5.2-.3.3-.6.5-.8h0Z"/>
              </g>
            </g>
          </g>
        </g>
      </g>
      <g>
        <path class="cls-39" d="M81.2,61.7s2.6-1.5,7.9-2.4"/>
        <path class="cls-39" d="M57.6,60.8s-2.5-1.5-7.9-2.4"/>
      </g>
      <g id="Layer_11" data-name="Layer 11">
        <path class="cls-49" d="M119.7,67l4.2-1.5c.1,0,.2-.1.2-.2l1.2-5.5c0-.2.4-.2.4,0l1.8,5.2c0,.1.6.3.7.3l3.8,1.1c.3,0-.1.7-.4.9l-3.6,2.3c0,0-.4.5-.4,1l-.4,3.8c0,.3-.5.4-.6.1l-2.5-5h-.1c0-.1-4.5-1.7-4.5-1.7-.3-.1-.1-.7.2-.8Z"/>
        <path class="cls-49" d="M3.9,118.9l4.2-1.5c.1,0,.2-.1.2-.2l1.2-5.5c0-.2.4-.2.4,0l1.8,5.2c0,.1.6.3.7.3l3.8,1.1c.3,0-.1.7-.4.9l-3.6,2.3c0,0-.4.5-.4,1l-.4,3.8c0,.3-.5.4-.6.1l-2.5-5h-.1c0-.1-4.5-1.7-4.5-1.7-.3-.1-.1-.7.2-.8Z"/>
      </g>
      <ellipse class="cls-10" cx="75.3" cy="18.2" rx=".6" ry=".5" transform="translate(47.2 90.5) rotate(-82.4)"/>
      <circle class="cls-23" cx="74.6" cy="16.6" r=".9"/>
      <g>
        <circle class="cls-47" cx="57.5" cy="33" r="2.5"/>
        <path class="cls-17" d="M53.6,28c-.7-1.9,4.3-4.6,1.1-6.6-1.8-1.2-3.8,1.7-4.9,3.7.5,0,.9-.2,1.4-.9,1-1.5,2.4-2.1,2.9-1.8.6.3.5,1.6-1,3.8-.7,1.5.6,3.4.6,3.4,0,0,.5.7.9.5h.2c-.3-.4-.8-1-1.2-2Z"/>
        <path class="cls-3" d="M51.9,18c-2,.7-4.4,3.9-4.4,3.9,0,0-.7,1.7.4,2.4.6.4,1.3.9,1.9.8,1.1-2,3.1-4.9,4.9-3.7,3.2,2.1-1.8,4.7-1.1,6.6.4,1,.8,1.6,1.2,1.9l2.3-1s.7-.3.6-1.1c-.2-.8-.5-1.7.7-2.5,1.2-.8,1.4-3,.1-5.5-1.2-2.5-4.7-2.5-6.6-1.8Z"/>
        <g>
          <path class="cls-41" d="M47.4,21.8s-.7,1.7.4,2.4,2.3,1.5,3.3,0,2.4-2.1,2.9-1.8.5,1.6-1,3.8c-.7,1.5.6,3.4.6,3.4,0,0,.5.7.9.5l2.5-1.1s.7-.3.6-1.1-.5-1.7.7-2.5,1.4-3,.1-5.5-4.7-2.5-6.6-1.8-4.4,3.9-4.4,3.9Z"/>
          <circle class="cls-47" cx="57.5" cy="33" r="2.5"/>
          <ellipse class="cls-10" cx="57" cy="20.7" rx=".5" ry=".6" transform="translate(-3.5 17.4) rotate(-16.8)"/>
        </g>
      </g>
      <g>
        <circle class="cls-47" cx="70.8" cy="30.8" r="2.5"/>
        <path class="cls-17" d="M69.3,24.6c.1-2.1,5.8-2.4,3.7-5.6-1.2-1.8-4.2,0-6,1.4.4.2.9.2,1.6-.2,1.6-1,3-1,3.4-.4.4.5-.2,1.7-2.4,3-1.3,1.1-.8,3.3-.8,3.3,0,0,.1.8.6.8h.3c-.2-.4-.3-1.2-.3-2.2Z"/>
        <path class="cls-3" d="M71.9,14.8c-2.1-.2-5.6,1.7-5.6,1.7,0,0-1.3,1.2-.7,2.4.4.7.8,1.3,1.4,1.6,1.9-1.4,4.9-3.2,6-1.4,2.1,3.2-3.6,3.5-3.7,5.6,0,1.1,0,1.8.3,2.2h2.5s.8,0,1-.8c.2-.8.2-1.7,1.6-2,1.4-.3,2.5-2.2,2.4-5,0-2.8-3.2-4.2-5.3-4.4Z"/>
        <g>
          <path class="cls-41" d="M66.2,16.5s-1.3,1.2-.7,2.4,1.5,2.3,3,1.3,3-1,3.4-.4-.2,1.7-2.4,3c-1.3,1.1-.8,3.3-.8,3.3,0,0,.1.8.6.8h2.8s.8,0,1-.8.2-1.7,1.6-2,2.5-2.2,2.4-5-3.2-4.2-5.3-4.4-5.6,1.7-5.6,1.7Z"/>
          <circle class="cls-47" cx="70.8" cy="30.8" r="2.5"/>
          <ellipse class="cls-10" cx="75.4" cy="19.3" rx=".6" ry=".5" transform="translate(46.2 91.5) rotate(-82.4)"/>
          <circle class="cls-23" cx="74.7" cy="17.7" r=".9"/>
        </g>
      </g>
      <g>
        <circle class="cls-47" cx="83.3" cy="33.9" r="2.5"/>
        <path class="cls-17" d="M84.2,27.6c.9-1.9,6.3,0,5.5-3.8-.4-2.1-3.8-1.6-6.1-1,.3.3.8.5,1.6.4,1.8-.3,3.2.2,3.3.9.1.6-.9,1.5-3.4,1.9-1.6.5-2,2.8-2,2.8,0,0-.2.8.2.9h.2c0-.4.1-1.1.6-2.1Z"/>
        <path class="cls-3" d="M90.3,19.4c-1.8-.9-5.9-.5-5.9-.5,0,0-1.7.6-1.5,1.9.1.8.3,1.5.7,2,2.3-.6,5.7-1.1,6.1,1,.7,3.7-4.7,1.9-5.5,3.8-.5,1-.6,1.7-.6,2.2l2.3.9s.8.3,1.2-.4c.5-.7.9-1.5,2.3-1.2,1.4.3,3.1-1.1,4.1-3.7,1-2.6-1.4-5.1-3.3-6Z"/>
        <g>
          <path class="cls-41" d="M84.4,18.9s-1.7.6-1.5,1.9.5,2.7,2.3,2.4,3.2.2,3.3.9-.9,1.5-3.4,1.9c-1.6.5-2,2.8-2,2.8,0,0-.2.8.2.9l2.6,1s.8.3,1.2-.4.9-1.5,2.3-1.2,3.1-1.1,4.1-3.7-1.4-5.1-3.3-6-5.9-.5-5.9-.5Z"/>
          <circle class="cls-47" cx="83.3" cy="33.9" r="2.5"/>
          <circle class="cls-23" cx="91.8" cy="23.2" r=".9"/>
        </g>
      </g>
      <path class="cls-42" d="M65.2,94.5s2.4-1.7,4.7-.7,2.9,1.2,2.9,1.2"/>
    </g>
    <g id="sad" class="cls-74">
      <g id="ojos-9" data-name="ojos">
        <g>
          <g id="_Mirror_Repeat_-3-10" data-name=" Mirror Repeat -3">
            <g class="cls-64">
              <g>
                <path class="cls-24" d="M60,78.4c-.3-3.4-1.3-5.8-2.5-7.5-2.6-1.3-6.1-2.3-9.7-1.3-1.5.4-2.8.9-3.9,1.6-2.3,2.4-4,5.6-3.4,9.5,1.7,0,2.1.8,3.5,2,2.1,1,3.8,2.8,9.6.2,3.5-1.5,5.1,0,5.9,1.5.5-1.6.8-3.5.6-5.9h0Z"/>
                <path class="cls-18" d="M37.3,81.2c0,4.1,4.3,8.9,10.9,9-3.2-1.3-6.7-3.9-7.8-9.2,0-.1,0-.3,0-.4,0,0-.1,0-.2,0-1,0-2,.2-2.9.6Z"/>
                <path class="cls-16" d="M43.8,71.1c-4.6,2.5-6.4,6.7-6.5,10v.2c.9-.4,1.9-.7,2.9-.6,0,0,.1,0,.2,0-.6-4,1.1-7.2,3.4-9.6h0Z"/>
                <path class="cls-27" d="M48.7,73.7s.2-3.6,3.3-3.5,3.8,3.2,3.7,4-.8,3-3,3.2-3.9-1.7-4.1-3.7h0Z"/>
                <path class="cls-20" d="M58.8,83.4c-.9-1.2-2.5-2-5.4-.7-5.9,2.6-7.5.9-9.6-.2-1.3-1.2-1.8-1.9-3.5-2,0,.2,0,.3,0,.5,1,5.3,4.5,7.9,7.8,9.2h.1c1.1,0,2.2,0,3.3-.1h0c4.6-1.2,6.5-4.5,7.2-6.7h0Z"/>
                <path class="cls-24" d="M58.8,83.4c-.8,2.2-2.7,5.4-7.2,6.7h0c-1.3.2-2.2.1-3.3.1-6.8,0-11.1-5-11-9.2s2.8-9.5,10.4-11.6c3.7-1,7.1,0,9.7,1.3-3.6-5-9.6-4.2-9.6-4.2,0,0-12.4,0-13.2,12.6-.6,12.9,13.2,12.6,13.2,12.6,0,0,3.6,0,6.9-2,1.9-1.1,3.7-2.8,4.6-5.5-.2-.3-.3-.6-.5-.8h0Z"/>
              </g>
            </g>
          </g>
          <g id="_Mirror_Repeat_-4-9" data-name=" Mirror Repeat -4">
            <g class="cls-77">
              <g>
                <path class="cls-24" d="M77.6,78.4c.3-3.4,1.3-5.8,2.5-7.5,2.6-1.3,6.1-2.3,9.7-1.3,1.5.4,2.8.9,3.9,1.6,2.3,2.4,4,5.6,3.4,9.5-1.7,0-2.1.8-3.5,2-2.1,1-3.8,2.8-9.6.2-3.5-1.5-5.1,0-5.9,1.5-.6-1.6-.8-3.5-.6-5.9h0Z"/>
                <path class="cls-18" d="M100.3,81.2c0,4.1-4.3,8.9-10.9,9,3.2-1.3,6.7-3.9,7.8-9.2,0-.1,0-.3,0-.4,0,0,.1,0,.2,0,1,0,2,.2,2.9.6Z"/>
                <path class="cls-21" d="M93.8,71.1c4.7,2.5,6.4,6.7,6.5,10v.2c-.9-.4-1.9-.7-2.9-.6,0,0-.1,0-.2,0,.6-4-1.1-7.2-3.4-9.6h0Z"/>
                <path class="cls-27" d="M88.9,73.7s-.2-3.6-3.3-3.5-3.8,3.2-3.7,4,.8,3,3,3.2,3.9-1.7,4.1-3.7h0Z"/>
                <path class="cls-32" d="M78.7,83.4c.9-1.2,2.5-2,5.4-.7,5.9,2.6,7.5.9,9.6-.2,1.3-1.2,1.8-1.9,3.5-2,0,.2,0,.3,0,.5-1,5.3-4.6,7.9-7.8,9.2h-.1c-1.1,0-2.2,0-3.3-.1h0c-4.6-1.2-6.5-4.5-7.2-6.7h0Z"/>
                <path class="cls-24" d="M78.7,83.4c.8,2.2,2.7,5.4,7.2,6.7h0c1.3.2,2.2.1,3.3.1,6.8,0,11.2-5,11-9.2s-2.8-9.5-10.4-11.6c-3.7-1-7.1,0-9.7,1.3,3.6-5,9.6-4.2,9.6-4.2,0,0,12.4,0,13.2,12.6.6,12.9-13.2,12.6-13.2,12.6,0,0-3.6,0-6.9-2-1.9-1.1-3.7-2.8-4.6-5.5.2-.3.3-.6.5-.8h0Z"/>
              </g>
            </g>
          </g>
        </g>
      </g>
      <g>
        <path class="cls-39" d="M81.2,61.7s2.6-1.5,7.9-2.4"/>
        <path class="cls-39" d="M57.6,60.8s-2.5-1.5-7.9-2.4"/>
      </g>
      <ellipse class="cls-10" cx="75.3" cy="18.2" rx=".6" ry=".5" transform="translate(47.2 90.5) rotate(-82.4)"/>
      <circle class="cls-23" cx="74.6" cy="16.6" r=".9"/>
      <path class="cls-42" d="M65.2,94.5s2.4-1.7,4.7-.7,2.9,1.2,2.9,1.2"/>
      <path class="cls-6" d="M36.5,88.4s-2.5-1.7.4-3.4,3-1.3,4.3-1.5,1.9,0,4.4,1.4,6.5,2.6,9,.4,3.6-3.4,4.6-3,.4,3.7-1.9,5.8-7.3,5.7-13.9,3.6c-5.7-1.8-6.8-3.4-6.8-3.4Z"/>
      <ellipse class="cls-2" cx="38.8" cy="87.5" rx="1.5" ry="2.8" transform="translate(-56.8 93.1) rotate(-69.5)"/>
      <ellipse class="cls-11" cx="40.2" cy="85.5" rx=".6" ry="1.2" transform="translate(-54 93.2) rotate(-69.5)"/>
      <path class="cls-19" d="M77.5,81.8s.8-1.6,1.5,0,0,3.9,4.3,4.9,6.4.6,6.4.6c0,0,6.1-1.2,7.9-.8,6,1.4-2.9,4.7-2.9,4.7,0,0-2.9,1-5.2.5,0,0-6,.2-9.2-2.7s-2.8-7.2-2.8-7.2Z"/>
      <ellipse class="cls-2" cx="96.5" cy="88.9" rx="3.2" ry="1.3" transform="translate(-29.4 51.8) rotate(-26.2)"/>
      <ellipse class="cls-5" cx="95" cy="87.5" rx="1" ry=".4" transform="translate(-28.9 51) rotate(-26.2)"/>
      <path class="cls-26" d="M95.8,92.3c-.3.3-1.9,1.6-1.9,3.1,0,0,.2,2.4,2.1,2.3s2.7-1.7,2.6-2.6-1.8-3-1.7-4l-1,1.1s0,0-.1.1Z"/>
    </g>
    <g id="Layer_7-4" data-name="Layer 7">
      <path class="cls-34" d="M65.3,86.4s-.1-.7.3-1c.6-.5,1.2-.9,3.3-.9s2.9,1.1,2.9,1.1c0,0,.3.3.3.5,0,.4-.4.8-.4.8,0,0-1.3,1.7-2.3,2-.3.1-.5.1-.8.1-.3,0-2.3-.2-3.3-2.7h0Z"/>
    </g>
    <g id="cola">
      <path class="cls-28" d="M120.7,117c-2.6,0-4.9-.5-6.7-1.3-1.6-.7-1.2-2.8-.5-4.7-.5.4-.9.8-1.4,1.3-6.1,6.1-3.6,17-3.6,17l.3.8c.4-.9,7.2,0,7.2,0-.8-9.1,1.9-11.5,4.7-13.1Z"/>
      <path class="cls-33" d="M114,115.7c1.8.8,4.1,1.2,6.7,1.3.9-.5,1.7-.9,2.5-1.4,3.4-2.1,2.4-5.5,1.1-6.6-1.2-1-5.4-2.6-10.9,2-.7,1.9-1,4,.5,4.7Z"/>
      <path class="cls-42" d="M108.5,129.3s-2.5-10.9,3.6-17,11-4.3,12.2-3.2,2.3,4.5-1.1,6.6-8.2,2.6-7.2,14.4"/>
    </g>
  </g>
  <g id="star" class="cls-74">
    <g>
      <g>
        <path class="cls-44" d="M112.5,81.3s9.4-2.8,9.1-12.2c0,0,.7,10.9,7.9,11.5,0,0-7.4,1.3-7.9,12,0,0-1.1-10.6-9.1-11.2Z"/>
        <path class="cls-15" d="M112.5,81.3s9.4-2.8,9.1-12.2c0,0,.7,10.9,7.9,11.5,0,0-7.4,1.3-7.9,12,0,0-1.1-10.6-9.1-11.2Z"/>
        <path class="cls-9" d="M116.5,81.1s4.9-1.5,4.7-6.4c0,0,.4,5.7,4.1,6,0,0-3.9.7-4.1,6.2,0,0-.6-5.5-4.7-5.8Z"/>
      </g>
      <path class="cls-22" d="M118.2,81s3.1-.9,3-4c0,0,.2,3.6,2.6,3.8,0,0-2.4.4-2.6,3.9,0,0-.4-3.5-3-3.7Z"/>
    </g>
  </g>
</svg>