<?xml version="1.0" encoding="UTF-8"?>
<svg id="Layer_1" data-name="Layer 1" xmlns="http://www.w3.org/2000/svg" version="1.1" xmlns:xlink="http://www.w3.org/1999/xlink" viewBox="0 0 140 140">
  <defs>
    <style>
      .cls-1 {
        fill: #f48047;
      }

      .cls-1, .cls-2, .cls-3, .cls-4, .cls-5, .cls-6, .cls-7, .cls-8, .cls-9, .cls-10, .cls-11, .cls-12, .cls-13, .cls-14, .cls-15, .cls-16, .cls-17, .cls-18, .cls-19, .cls-20 {
        stroke-width: 0px;
      }

      .cls-21 {
        clip-path: url(#clippath-11);
      }

      .cls-22, .cls-23, .cls-6, .cls-24, .cls-25, .cls-26 {
        fill: none;
      }

      .cls-22, .cls-23, .cls-24, .cls-27, .cls-25, .cls-28, .cls-26 {
        stroke-linecap: round;
      }

      .cls-22, .cls-23, .cls-28 {
        stroke-width: 3px;
      }

      .cls-22, .cls-24, .cls-27, .cls-25, .cls-29 {
        stroke: #160e0e;
      }

      .cls-22, .cls-24, .cls-25, .cls-30, .cls-29 {
        stroke-miterlimit: 10;
      }

      .cls-23, .cls-27, .cls-28, .cls-26 {
        stroke-linejoin: round;
      }

      .cls-23, .cls-28, .cls-26 {
        stroke: #240e10;
      }

      .cls-2 {
        fill: url(#linear-gradient);
      }

      .cls-31 {
        fill: #ffe87e;
        stroke: #ef5a02;
      }

      .cls-31, .cls-32 {
        stroke-miterlimit: 7;
      }

      .cls-31, .cls-32, .cls-24, .cls-27, .cls-30, .cls-26 {
        stroke-width: 2px;
      }

      .cls-32 {
        fill: #eefbff;
        stroke: #0191ab;
      }

      .cls-3 {
        fill: #cfac9b;
      }

      .cls-33 {
        clip-path: url(#clippath-2);
      }

      .cls-34, .cls-7, .cls-17, .cls-20 {
        isolation: isolate;
      }

      .cls-4 {
        fill: #9a142b;
      }

      .cls-35 {
        clip-path: url(#clippath-6);
      }

      .cls-5 {
        fill: url(#linear-gradient-5);
      }

      .cls-36 {
        clip-path: url(#clippath-7);
      }

      .cls-37 {
        clip-path: url(#clippath-1);
      }

      .cls-38 {
        clip-path: url(#clippath-4);
      }

      .cls-27 {
        fill: #dc2227;
      }

      .cls-7 {
        fill: #c04727;
        opacity: .8;
      }

      .cls-8 {
        fill: url(#linear-gradient-2);
      }

      .cls-9 {
        fill: #fffefb;
      }

      .cls-10 {
        fill: url(#radial-gradient-2);
      }

      .cls-11 {
        fill: url(#linear-gradient-3);
      }

      .cls-39 {
        clip-path: url(#clippath-9);
      }

      .cls-40 {
        clip-path: url(#clippath);
      }

      .cls-12 {
        fill: #160e0e;
      }

      .cls-13 {
        fill: url(#radial-gradient);
      }

      .cls-41 {
        clip-path: url(#clippath-3);
      }

      .cls-30 {
        fill: #f58220;
        stroke: #251012;
      }

      .cls-42 {
        clip-path: url(#clippath-8);
      }

      .cls-14 {
        fill: #fff;
      }

      .cls-28, .cls-16 {
        fill: #f9f2d8;
      }

      .cls-43 {
        clip-path: url(#clippath-5);
      }

      .cls-44 {
        display: none;
      }

      .cls-15 {
        fill: #ead2ae;
      }

      .cls-17 {
        fill: #f9e250;
      }

      .cls-17, .cls-20 {
        opacity: .6;
      }

      .cls-45 {
        opacity: .9;
      }

      .cls-18 {
        fill: url(#radial-gradient-3);
      }

      .cls-46 {
        clip-path: url(#clippath-10);
      }

      .cls-29 {
        fill: #f1fef9;
      }

      .cls-19 {
        fill: url(#linear-gradient-4);
      }

      .cls-20 {
        fill: #fafbfb;
      }
    </style>
    <linearGradient id="linear-gradient" x1="73.5" y1="34" x2="65.4" y2="42.1" gradientTransform="translate(0 162.2) scale(1 -1)" gradientUnits="userSpaceOnUse">
      <stop offset="0" stop-color="#a64524"/>
      <stop offset=".7" stop-color="#e0873b"/>
      <stop offset="1" stop-color="#f29843"/>
    </linearGradient>
    <radialGradient id="radial-gradient" cx="66" cy="37.5" fx="66" fy="37.5" r="4.6" gradientTransform="translate(0 162.2) scale(1 -1)" gradientUnits="userSpaceOnUse">
      <stop offset="0" stop-color="#e18624"/>
      <stop offset=".8" stop-color="#f29843"/>
    </radialGradient>
    <clipPath id="clippath">
      <rect class="cls-6" x="-11.3" y="46.5" width="94.8" height="91.7"/>
    </clipPath>
    <clipPath id="clippath-1">
      <rect class="cls-6" x="56.1" y="46.5" width="94.8" height="91.7"/>
    </clipPath>
    <clipPath id="clippath-2">
      <rect class="cls-6" x="-11.3" y="46.5" width="94.8" height="91.7"/>
    </clipPath>
    <clipPath id="clippath-3">
      <rect class="cls-6" x="56.1" y="46.5" width="94.8" height="91.7"/>
    </clipPath>
    <clipPath id="clippath-4">
      <rect class="cls-6" x="34.6" y="66.6" width="25.4" height="25.3"/>
    </clipPath>
    <linearGradient id="linear-gradient-2" x1="45.1" y1="89.8" x2="36.8" y2="81.4" gradientTransform="translate(0 162.2) scale(1 -1)" gradientUnits="userSpaceOnUse">
      <stop offset=".3" stop-color="#faf7ef"/>
      <stop offset=".8" stop-color="#cebfa9"/>
      <stop offset="1" stop-color="#c1b19b"/>
    </linearGradient>
    <radialGradient id="radial-gradient-2" cx="49.9" cy="76.8" fx="62" fy="76.8" r="14.7" gradientTransform="translate(0 162.2) scale(1 -1)" gradientUnits="userSpaceOnUse">
      <stop offset="0" stop-color="#a64524"/>
      <stop offset=".6" stop-color="#e0873b"/>
      <stop offset="1" stop-color="#f29843"/>
    </radialGradient>
    <clipPath id="clippath-5">
      <rect class="cls-6" x="77.5" y="66.6" width="25.4" height="25.3"/>
    </clipPath>
    <linearGradient id="linear-gradient-3" x1="45.1" y1="89.8" x2="36.8" y2="81.4" gradientTransform="translate(137.6 162.2) rotate(-180)" gradientUnits="userSpaceOnUse">
      <stop offset=".3" stop-color="#faf7ef"/>
      <stop offset=".8" stop-color="#cebfa9"/>
      <stop offset="1" stop-color="#c1b19b"/>
    </linearGradient>
    <radialGradient id="radial-gradient-3" cx="49.9" cy="76.8" fx="62" fy="76.8" r="14.7" gradientTransform="translate(137.6 162.2) rotate(-180)" gradientUnits="userSpaceOnUse">
      <stop offset="0" stop-color="#a64524"/>
      <stop offset=".6" stop-color="#e0873b"/>
      <stop offset="1" stop-color="#f29843"/>
    </radialGradient>
    <linearGradient id="linear-gradient-4" x1="68.7" y1="77.7" x2="68.7" y2="73.2" gradientTransform="translate(0 162.2) scale(1 -1)" gradientUnits="userSpaceOnUse">
      <stop offset=".1" stop-color="#a64524"/>
      <stop offset=".9" stop-color="#e0873b"/>
    </linearGradient>
    <clipPath id="clippath-6">
      <rect class="cls-6" x="34.6" y="66.6" width="25.4" height="25.3"/>
    </clipPath>
    <clipPath id="clippath-7">
      <rect class="cls-6" x="77.5" y="66.6" width="25.4" height="25.3"/>
    </clipPath>
    <clipPath id="clippath-8">
      <rect class="cls-6" x="34.6" y="66.6" width="25.4" height="25.3"/>
    </clipPath>
    <clipPath id="clippath-9">
      <rect class="cls-6" x="77.5" y="66.6" width="25.4" height="25.3"/>
    </clipPath>
    <clipPath id="clippath-10">
      <rect class="cls-6" x="34.6" y="66.6" width="25.4" height="25.3"/>
    </clipPath>
    <clipPath id="clippath-11">
      <rect class="cls-6" x="77.5" y="66.6" width="25.4" height="25.3"/>
    </clipPath>
    <linearGradient id="linear-gradient-5" x1="59.3" y1="98.8" x2="76.9" y2="98.8" gradientUnits="userSpaceOnUse">
      <stop offset=".1" stop-color="#d2724b"/>
      <stop offset=".6" stop-color="#f5a65c"/>
      <stop offset=".8" stop-color="#fe7c47"/>
      <stop offset="1" stop-color="#fe7c46"/>
    </linearGradient>
  </defs>
  <g id="Layer_10" data-name="Layer 10" class="cls-44">
    <g class="cls-44">
      <image id="image" class="cls-34" width="1024" height="1024" transform="translate(-118 30.7) scale(.3)" xlink:href="cat_annoyed-1.png"/>
    </g>
    <g class="cls-44">
      <image id="image-2" class="cls-34" width="1024" height="1024" transform="translate(-118 30.7) scale(.3)" xlink:href="cat_annoyed-2.png"/>
    </g>
    <g class="cls-44">
      <image id="image-7" class="cls-34" width="1024" height="1024" transform="translate(-118 30.7) scale(.3)" xlink:href="cat_annoyed-3.png"/>
    </g>
    <g class="cls-44">
      <image id="image-3" class="cls-34" width="1024" height="1024" transform="translate(-118 30.7) scale(.3)" xlink:href="cat_annoyed-4.png"/>
    </g>
    <g class="cls-44">
      <image id="image-5" class="cls-34" width="1024" height="1024" transform="translate(-118 30.7) scale(.3)" xlink:href="cat_annoyed-5.png"/>
    </g>
    <g class="cls-44">
      <image id="image-4" class="cls-34" width="1024" height="1024" transform="translate(-118 30.7) scale(.3)" xlink:href="cat_annoyed-6.png"/>
    </g>
    <g class="cls-44">
      <image id="image-6" class="cls-34" width="1024" height="1024" transform="translate(-118 30.7) scale(.3)" xlink:href="cat_annoyed-7.png"/>
    </g>
    <image id="rostro_T1" data-name="rostro T1" class="cls-34" width="1024" height="1024" transform="translate(-118 30.7) scale(.3)" xlink:href="cat_annoyed-8.png"/>
    <image id="expresion" class="cls-34" width="1024" height="1024" transform="translate(-118 30.7) scale(.3)" xlink:href="cat_annoyed-9.png"/>
    <image id="rostro" class="cls-34" width="1024" height="1024" transform="translate(-118 30.7) scale(.3)" xlink:href="cat_annoyed-10.png"/>
    <image id="icon" class="cls-34" width="1024" height="1024" transform="translate(-118 30.7) scale(.3)" xlink:href="cat_annoyed-11.png"/>
  </g>
  <g id="Layer_2" data-name="Layer 2">
    <path class="cls-16" d="M98,124.1c-6-1-10.8,2.2-16.3,2.8-5.6.7-7.4,0-7.4,0,0,0-2.3-2.4-11.5-.9-10.6,1.8-9.9-.4-16.7-1.6-3.3-.6-6,.2-7.9,1.2-1.1,2.3-1.8,4.1-1.8,4.1,0,0,5.3,2,16.7,1.8,11.4-.2,12.4-1,19.5-.4,21.1,3,27.3-1.4,27.3-1.4-.5-2.2-1.2-4-2-5.6h0Z"/>
    <path class="cls-15" d="M46.2,124.4c6.8,1.2,6.1,3.3,16.7,1.6,9.2-1.5,11.5.9,11.5.9,0,0,1.7.8,7.4,0,5.4-.7,10.3-3.9,16.3-2.8-3.1-6.3-7.2-8-7.2-8-25.1,5.7-44-1-44-1-3.5,1.3-6.6,6.7-8.5,10.5,1.9-1,4.6-1.8,7.9-1.2h0Z"/>
    <path class="cls-23" d="M100,129.7s-3-10.2-7.6-14.4c0,0-21.5,6.6-45.7-.2,0,0-5.6,2.1-9.6,14.6"/>
    <g id="Layer_5" data-name="Layer 5">
      <path class="cls-27" d="M48.8,116.2s-3.5-.7-3.5,1.6,3.7,5.8,17.7,7.2c14,1.4,26.1-.6,29.2-6.6.7-2.8-1.5-2.3-1.5-2.3,0,0-23.6,6.3-42,.1h0Z"/>
    </g>
    <path class="cls-28" d="M26.4,65.5s-14.6,25.8,1.3,40c15.8,14.2,61.8,20.6,82.6-.9,16.2-16.4.9-38,.9-38,0,0,13.3-18.5.4-36.2-6.6-7.4-27.3,13.3-27.3,13.3,0,0-15.1-7.6-30.9-.2,0,0-15.6-16.9-27.5-12.6-8.6,3.8-6.2,29.8.6,34.6h0Z"/>
    <g id="Layer_9" data-name="Layer 9">
      <path class="cls-3" d="M21.9,85.6s2.8,27.6,43.4,27.4c40.6-.2,49.2-16.3,49.2-16.3,0,0-5,14-31.2,19.4-18.8,3.9-46.3-1.4-57.6-14.4-.2-.2-.3-.4-.4-.6-4.5-7.8-3.4-15.4-3.4-15.5Z"/>
    </g>
    <path class="cls-1" d="M112.7,34.1s4.8,8.9,2.4,20.1c-1.9,9.2-5.4,12.5-5.4,12.5,0,0-6.4-10.7-10.8-13.8,0,0,6.7-.3,5.4-2.9-1-2.1-.8-3.3-7.7-3.6,0,0,6.1-11,16.1-12.3Z"/>
    <path class="cls-26" d="M111,66.4s-6.2-10.9-12.4-13.6c0,0,7.1,0,6.2-2.4s-3.4-4.9-10.9-2.4c0,0,10.7-14,20-14.7"/>
    <path class="cls-1" d="M24,34.2s11.9,3.8,16.7,12.2c0,0-8.4,0-8.5,3.4s6,2.6,6,2.6c0,0-7.2,3.7-11.7,12.5,0,0-3.9-6.2-4.6-15-.4-5.4-.9-8.8,2.1-15.6h0Z"/>
    <path class="cls-26" d="M23.3,33.4s5.6-.4,20.3,14.7c0,0-9.7-3.3-11.6,1.9-.7,1.7,7.4,2.6,7.4,2.6,0,0-8.4,3.6-13,14.5"/>
    <g id="Layer_6" data-name="Layer 6">
      <circle class="cls-30" cx="68.8" cy="124.5" r="5.9"/>
      <path class="cls-2" d="M74.7,124.5c0-3.3-2.7-5.9-5.9-5.9s-1.6.2-2.3.5c-1.1,1.9-2.8,5.5-1.2,7.9,1,1.6,2.6,2.7,3.8,3.4,3.1-.2,5.6-2.7,5.6-5.9h0Z"/>
      <ellipse class="cls-20" cx="67.2" cy="122.2" rx="1.6" ry="1.4" transform="translate(-68.1 156) rotate(-75.2)"/>
      <ellipse class="cls-17" cx="70.5" cy="122.5" rx=".9" ry="1.2" transform="translate(-66 85.8) rotate(-45)"/>
      <path class="cls-7" d="M67,126.9s.9.9,1.9,1.2,2-.1,2.4-.6c0,0-.6.6-1.5,1s-1.9-.5-1.9-.5c0,0-.3-.6-.8-1.1h0Z"/>
      <path class="cls-13" d="M65.2,126.9c-1.6-2.4.1-6,1.2-7.9-2.1.9-3.6,3-3.6,5.4s2.7,5.9,5.9,5.9.2,0,.3,0c-1.3-.7-2.8-1.8-3.8-3.4h0Z"/>
    </g>
    <image id="image-2" data-name="image" class="cls-34" width="1024" height="1024" transform="translate(-761.4 694.4)" xlink:href="cat_annoyed-12.png"/>
    <image id="image-2-2" data-name="image-2" class="cls-34" width="1024" height="1024" transform="translate(-761.4 694.4)" xlink:href="cat_annoyed-13.png"/>
    <image id="image-7-2" data-name="image-7" class="cls-34" width="1024" height="1024" transform="translate(-761.4 694.4)" xlink:href="cat_annoyed-14.png"/>
    <image id="image-3-2" data-name="image-3" class="cls-34" width="1024" height="1024" transform="translate(-761.4 694.4)" xlink:href="cat_annoyed-15.png"/>
    <image id="image-5-2" data-name="image-5" class="cls-34" width="1024" height="1024" transform="translate(-761.4 694.4)" xlink:href="cat_annoyed-16.png"/>
    <image id="image-4-2" data-name="image-4" class="cls-34" width="1024" height="1024" transform="translate(-761.4 694.4)" xlink:href="cat_annoyed-17.png"/>
    <image id="image-6-2" data-name="image-6" class="cls-34" width="1024" height="1024" transform="translate(-761.4 694.4)" xlink:href="cat_annoyed-18.png"/>
  </g>
  <g id="mejillas" class="cls-45">
    <g class="cls-44">
      <g id="_Mirror_Repeat_" data-name=" Mirror Repeat ">
        <g class="cls-40">
          <image class="cls-34" width="394" height="380" transform="translate(-11.3 46.7) scale(.2)" xlink:href="cat_annoyed-19.png"/>
        </g>
      </g>
      <g id="_Mirror_Repeat_-2" data-name=" Mirror Repeat -2">
        <g class="cls-37">
          <image class="cls-34" width="392" height="380" transform="translate(56.2 46.5) scale(.2)" xlink:href="cat_annoyed-20.png"/>
        </g>
      </g>
    </g>
    <g id="Layer_8" data-name="Layer 8" class="cls-45">
      <g>
        <g id="_Mirror_Repeat_-2" data-name=" Mirror Repeat ">
          <g class="cls-33">
            <image class="cls-34" width="394" height="380" transform="translate(-11.3 46.7) scale(.2)" xlink:href="cat_annoyed-21.png"/>
          </g>
        </g>
        <g id="_Mirror_Repeat_-2-2" data-name=" Mirror Repeat -2">
          <g class="cls-41">
            <image class="cls-34" width="392" height="380" transform="translate(56.2 46.5) scale(.2)" xlink:href="cat_annoyed-22.png"/>
          </g>
        </g>
      </g>
    </g>
  </g>
  <g id="bigotes">
    <path class="cls-24" d="M109.6,94.4s6.2.6,9.8,4.4"/>
    <path class="cls-24" d="M106.3,101.3s4.6,3.8,6.4,5.3"/>
    <path class="cls-24" d="M28.3,94.4s-6.9,1.6-9.3,4.4"/>
    <path class="cls-24" d="M31.6,101.3s-5.1,4.9-6.7,7.3"/>
  </g>
  <g id="curious" class="cls-44">
    <g id="happy_copy" data-name="happy copy">
      <g id="ojos">
        <g>
          <g id="_Mirror_Repeat_-3" data-name=" Mirror Repeat -3">
            <g class="cls-38">
              <g>
                <path class="cls-12" d="M60,78.4c-.3-3.4-1.3-5.8-2.5-7.5-2.6-1.3-6.1-2.3-9.7-1.3-1.5.4-2.8.9-3.9,1.6-2.3,2.4-4,5.6-3.4,9.5,1.7,0,2.1.8,3.5,2,2.1,1,3.8,2.8,9.6.2,3.5-1.5,5.1,0,5.9,1.5.5-1.6.8-3.5.6-5.9h0Z"/>
                <path class="cls-9" d="M37.3,81.2c0,4.1,4.3,8.9,10.9,9-3.2-1.3-6.7-3.9-7.8-9.2,0-.1,0-.3,0-.4,0,0-.1,0-.2,0-1,0-2,.2-2.9.6Z"/>
                <path class="cls-8" d="M43.8,71.1c-4.6,2.5-6.4,6.7-6.5,10v.2c.9-.4,1.9-.7,2.9-.6,0,0,.1,0,.2,0-.6-4,1.1-7.2,3.4-9.6h0Z"/>
                <path class="cls-14" d="M48.7,73.7s.2-3.6,3.3-3.5,3.8,3.2,3.7,4-.8,3-3,3.2-3.9-1.7-4.1-3.7h0Z"/>
                <path class="cls-10" d="M58.8,83.4c-.9-1.2-2.5-2-5.4-.7-5.9,2.6-7.5.9-9.6-.2-1.3-1.2-1.8-1.9-3.5-2,0,.2,0,.3,0,.5,1,5.3,4.5,7.9,7.8,9.2h.1c1.1,0,2.2,0,3.3-.1h0c4.6-1.2,6.5-4.5,7.2-6.7h0Z"/>
                <path class="cls-12" d="M58.8,83.4c-.8,2.2-2.7,5.4-7.2,6.7h0c-1.3.2-2.2.1-3.3.1-6.8,0-11.1-5-11-9.2s2.8-9.5,10.4-11.6c3.7-1,7.1,0,9.7,1.3-3.6-5-9.6-4.2-9.6-4.2,0,0-12.4,0-13.2,12.6-.6,12.9,13.2,12.6,13.2,12.6,0,0,3.6,0,6.9-2,1.9-1.1,3.7-2.8,4.6-5.5-.2-.3-.3-.6-.5-.8h0Z"/>
              </g>
            </g>
          </g>
          <g id="_Mirror_Repeat_-4" data-name=" Mirror Repeat -4">
            <g class="cls-43">
              <g>
                <path class="cls-12" d="M77.6,78.4c.3-3.4,1.3-5.8,2.5-7.5,2.6-1.3,6.1-2.3,9.7-1.3,1.5.4,2.8.9,3.9,1.6,2.3,2.4,4,5.6,3.4,9.5-1.7,0-2.1.8-3.5,2-2.1,1-3.8,2.8-9.6.2-3.5-1.5-5.1,0-5.9,1.5-.6-1.6-.8-3.5-.6-5.9h0Z"/>
                <path class="cls-9" d="M100.3,81.2c0,4.1-4.3,8.9-10.9,9,3.2-1.3,6.7-3.9,7.8-9.2,0-.1,0-.3,0-.4,0,0,.1,0,.2,0,1,0,2,.2,2.9.6Z"/>
                <path class="cls-11" d="M93.8,71.1c4.7,2.5,6.4,6.7,6.5,10v.2c-.9-.4-1.9-.7-2.9-.6,0,0-.1,0-.2,0,.6-4-1.1-7.2-3.4-9.6h0Z"/>
                <path class="cls-14" d="M88.9,73.7s-.2-3.6-3.3-3.5-3.8,3.2-3.7,4,.8,3,3,3.2,3.9-1.7,4.1-3.7h0Z"/>
                <path class="cls-18" d="M78.7,83.4c.9-1.2,2.5-2,5.4-.7,5.9,2.6,7.5.9,9.6-.2,1.3-1.2,1.8-1.9,3.5-2,0,.2,0,.3,0,.5-1,5.3-4.6,7.9-7.8,9.2h-.1c-1.1,0-2.2,0-3.3-.1h0c-4.6-1.2-6.5-4.5-7.2-6.7h0Z"/>
                <path class="cls-12" d="M78.7,83.4c.8,2.2,2.7,5.4,7.2,6.7h0c1.3.2,2.2.1,3.3.1,6.8,0,11.2-5,11-9.2s-2.8-9.5-10.4-11.6c-3.7-1-7.1,0-9.7,1.3,3.6-5,9.6-4.2,9.6-4.2,0,0,12.4,0,13.2,12.6.6,12.9-13.2,12.6-13.2,12.6,0,0-3.6,0-6.9-2-1.9-1.1-3.7-2.8-4.6-5.5.2-.3.3-.6.5-.8h0Z"/>
              </g>
            </g>
          </g>
        </g>
      </g>
      <circle class="cls-14" cx="47.3" cy="78.2" r="1.4"/>
      <circle class="cls-14" cx="90.3" cy="77.2" r="1.4"/>
    </g>
    <path class="cls-22" d="M81.2,59.1s1.6-1.4,3.5-1.5"/>
    <path class="cls-22" d="M51.5,57.2s3.1.2,4.3.7"/>
    <g>
      <path class="cls-24" d="M68.6,88.1s-.3,1.9,0,2.4"/>
      <path class="cls-24" d="M64.5,93.5s2.7-2.3,4.4-2.3,5.6,2.3,5.6,2.3"/>
    </g>
    <g id="Layer_7" data-name="Layer 7">
      <path class="cls-19" d="M65.3,86.4s-.1-.7.3-1c.6-.5,1.2-.9,3.3-.9s2.9,1.1,2.9,1.1c0,0,.3.3.3.5,0,.4-.4.8-.4.8,0,0-1.3,1.7-2.3,2-.3.1-.5.1-.8.1-.3,0-2.3-.2-3.3-2.7h0Z"/>
    </g>
    <path class="cls-32" d="M49.3,23.4l.9-2.2c0-.2.3-.2.4,0l1.9,2.3s0,0,.1,0l3,.5c.2,0,.3.2.1.4l-1.9,2.4c0,0,0,.1,0,.2l.5,2.9c0,.2-.1.3-.3.3l-2.6-.6c0,0-.1,0-.2,0l-2.7,1.4c-.2,0-.3,0-.3-.2v-2.9c0,0,0-.1,0-.2l-2.3-2.3c-.1-.1,0-.3,0-.4l3.1-1.4c0,0,0,0,.1-.1Z"/>
    <path class="cls-31" d="M87,23.1l1.6-1.8c.1-.1.3,0,.4,0l1.1,2.8c0,0,0,0,.1.1l2.7,1.4c.2,0,.2.3,0,.4l-2.5,1.7c0,0,0,0-.1.2l-.4,2.9c0,.2-.2.3-.4.2l-2.2-1.4s-.1,0-.2,0l-3,.4c-.2,0-.3-.1-.3-.3l.9-2.8c0,0,0-.1,0-.2l-1.4-2.9c0-.1,0-.3.2-.3l3.4-.3c0,0,.1,0,.2,0Z"/>
    <path class="cls-24" d="M67.1,22.7s1.9-2.9,3.4-1.2,1.9,3.2-1.3,5.2c-.2.2-.2.4-.2.4"/>
    <circle class="cls-12" cx="69.3" cy="29.7" r="1.2"/>
  </g>
  <g id="Layer_7-2" data-name="Layer 7" class="cls-44">
    <image width="197" height="280" transform="translate(14.6 26.7) scale(.4)" xlink:href="cat_annoyed-23.png"/>
  </g>
  <g id="happy" class="cls-44">
    <g id="ojos-2" data-name="ojos">
      <g>
        <g id="_Mirror_Repeat_-3-2" data-name=" Mirror Repeat -3">
          <g class="cls-35">
            <g>
              <path class="cls-12" d="M60,78.4c-.3-3.4-1.3-5.8-2.5-7.5-2.6-1.3-6.1-2.3-9.7-1.3-1.5.4-2.8.9-3.9,1.6-2.3,2.4-4,5.6-3.4,9.5,1.7,0,2.1.8,3.5,2,2.1,1,3.8,2.8,9.6.2,3.5-1.5,5.1,0,5.9,1.5.5-1.6.8-3.5.6-5.9h0Z"/>
              <path class="cls-9" d="M37.3,81.2c0,4.1,4.3,8.9,10.9,9-3.2-1.3-6.7-3.9-7.8-9.2,0-.1,0-.3,0-.4,0,0-.1,0-.2,0-1,0-2,.2-2.9.6Z"/>
              <path class="cls-8" d="M43.8,71.1c-4.6,2.5-6.4,6.7-6.5,10v.2c.9-.4,1.9-.7,2.9-.6,0,0,.1,0,.2,0-.6-4,1.1-7.2,3.4-9.6h0Z"/>
              <path class="cls-14" d="M48.7,73.7s.2-3.6,3.3-3.5,3.8,3.2,3.7,4-.8,3-3,3.2-3.9-1.7-4.1-3.7h0Z"/>
              <path class="cls-10" d="M58.8,83.4c-.9-1.2-2.5-2-5.4-.7-5.9,2.6-7.5.9-9.6-.2-1.3-1.2-1.8-1.9-3.5-2,0,.2,0,.3,0,.5,1,5.3,4.5,7.9,7.8,9.2h.1c1.1,0,2.2,0,3.3-.1h0c4.6-1.2,6.5-4.5,7.2-6.7h0Z"/>
              <path class="cls-12" d="M58.8,83.4c-.8,2.2-2.7,5.4-7.2,6.7h0c-1.3.2-2.2.1-3.3.1-6.8,0-11.1-5-11-9.2s2.8-9.5,10.4-11.6c3.7-1,7.1,0,9.7,1.3-3.6-5-9.6-4.2-9.6-4.2,0,0-12.4,0-13.2,12.6-.6,12.9,13.2,12.6,13.2,12.6,0,0,3.6,0,6.9-2,1.9-1.1,3.7-2.8,4.6-5.5-.2-.3-.3-.6-.5-.8h0Z"/>
            </g>
          </g>
        </g>
        <g id="_Mirror_Repeat_-4-2" data-name=" Mirror Repeat -4">
          <g class="cls-36">
            <g>
              <path class="cls-12" d="M77.6,78.4c.3-3.4,1.3-5.8,2.5-7.5,2.6-1.3,6.1-2.3,9.7-1.3,1.5.4,2.8.9,3.9,1.6,2.3,2.4,4,5.6,3.4,9.5-1.7,0-2.1.8-3.5,2-2.1,1-3.8,2.8-9.6.2-3.5-1.5-5.1,0-5.9,1.5-.6-1.6-.8-3.5-.6-5.9h0Z"/>
              <path class="cls-9" d="M100.3,81.2c0,4.1-4.3,8.9-10.9,9,3.2-1.3,6.7-3.9,7.8-9.2,0-.1,0-.3,0-.4,0,0,.1,0,.2,0,1,0,2,.2,2.9.6Z"/>
              <path class="cls-11" d="M93.8,71.1c4.7,2.5,6.4,6.7,6.5,10v.2c-.9-.4-1.9-.7-2.9-.6,0,0-.1,0-.2,0,.6-4-1.1-7.2-3.4-9.6h0Z"/>
              <path class="cls-14" d="M88.9,73.7s-.2-3.6-3.3-3.5-3.8,3.2-3.7,4,.8,3,3,3.2,3.9-1.7,4.1-3.7h0Z"/>
              <path class="cls-18" d="M78.7,83.4c.9-1.2,2.5-2,5.4-.7,5.9,2.6,7.5.9,9.6-.2,1.3-1.2,1.8-1.9,3.5-2,0,.2,0,.3,0,.5-1,5.3-4.6,7.9-7.8,9.2h-.1c-1.1,0-2.2,0-3.3-.1h0c-4.6-1.2-6.5-4.5-7.2-6.7h0Z"/>
              <path class="cls-12" d="M78.7,83.4c.8,2.2,2.7,5.4,7.2,6.7h0c1.3.2,2.2.1,3.3.1,6.8,0,11.2-5,11-9.2s-2.8-9.5-10.4-11.6c-3.7-1-7.1,0-9.7,1.3,3.6-5,9.6-4.2,9.6-4.2,0,0,12.4,0,13.2,12.6.6,12.9-13.2,12.6-13.2,12.6,0,0-3.6,0-6.9-2-1.9-1.1-3.7-2.8-4.6-5.5.2-.3.3-.6.5-.8h0Z"/>
            </g>
          </g>
        </g>
      </g>
    </g>
    <g>
      <path class="cls-24" d="M68.7,88.6s.2,4.2,5,5.4c3,.9,4.4-1.6,4.4-1.6"/>
      <path class="cls-24" d="M60.6,93s3.8,4,8.3-3.4"/>
    </g>
    <g>
      <path class="cls-22" d="M81.2,61.7s2.6-1.5,7.9-2.4"/>
      <path class="cls-22" d="M57.6,60.8s-2.5-1.5-7.9-2.4"/>
    </g>
  </g>
  <image width="540" height="515" transform="translate(10.5 23.9) scale(.2)" xlink:href="cat_annoyed-24.png"/>
  <g id="angry" class="cls-44">
    <g id="ojos-3" data-name="ojos">
      <g>
        <g id="_Mirror_Repeat_-3-3" data-name=" Mirror Repeat -3">
          <g class="cls-42">
            <g>
              <path class="cls-12" d="M60,78.4c-.3-3.4-1.3-5.8-2.5-7.5-2.6-1.3-6.1-2.3-9.7-1.3-1.5.4-2.8.9-3.9,1.6-2.3,2.4-4,5.6-3.4,9.5,1.7,0,2.1.8,3.5,2,2.1,1,3.8,2.8,9.6.2,3.5-1.5,5.1,0,5.9,1.5.5-1.6.8-3.5.6-5.9h0Z"/>
              <path class="cls-9" d="M37.3,81.2c0,4.1,4.3,8.9,10.9,9-3.2-1.3-6.7-3.9-7.8-9.2,0-.1,0-.3,0-.4,0,0-.1,0-.2,0-1,0-2,.2-2.9.6Z"/>
              <path class="cls-8" d="M43.8,71.1c-4.6,2.5-6.4,6.7-6.5,10v.2c.9-.4,1.9-.7,2.9-.6,0,0,.1,0,.2,0-.6-4,1.1-7.2,3.4-9.6h0Z"/>
              <path class="cls-14" d="M48.7,73.7s.2-3.6,3.3-3.5,3.8,3.2,3.7,4-.8,3-3,3.2-3.9-1.7-4.1-3.7h0Z"/>
              <path class="cls-10" d="M58.8,83.4c-.9-1.2-2.5-2-5.4-.7-5.9,2.6-7.5.9-9.6-.2-1.3-1.2-1.8-1.9-3.5-2,0,.2,0,.3,0,.5,1,5.3,4.5,7.9,7.8,9.2h.1c1.1,0,2.2,0,3.3-.1h0c4.6-1.2,6.5-4.5,7.2-6.7h0Z"/>
              <path class="cls-12" d="M58.8,83.4c-.8,2.2-2.7,5.4-7.2,6.7h0c-1.3.2-2.2.1-3.3.1-6.8,0-11.1-5-11-9.2s2.8-9.5,10.4-11.6c3.7-1,7.1,0,9.7,1.3-3.6-5-9.6-4.2-9.6-4.2,0,0-12.4,0-13.2,12.6-.6,12.9,13.2,12.6,13.2,12.6,0,0,3.6,0,6.9-2,1.9-1.1,3.7-2.8,4.6-5.5-.2-.3-.3-.6-.5-.8h0Z"/>
            </g>
          </g>
        </g>
        <g id="_Mirror_Repeat_-4-3" data-name=" Mirror Repeat -4">
          <g class="cls-39">
            <g>
              <path class="cls-12" d="M77.6,78.4c.3-3.4,1.3-5.8,2.5-7.5,2.6-1.3,6.1-2.3,9.7-1.3,1.5.4,2.8.9,3.9,1.6,2.3,2.4,4,5.6,3.4,9.5-1.7,0-2.1.8-3.5,2-2.1,1-3.8,2.8-9.6.2-3.5-1.5-5.1,0-5.9,1.5-.6-1.6-.8-3.5-.6-5.9h0Z"/>
              <path class="cls-9" d="M100.3,81.2c0,4.1-4.3,8.9-10.9,9,3.2-1.3,6.7-3.9,7.8-9.2,0-.1,0-.3,0-.4,0,0,.1,0,.2,0,1,0,2,.2,2.9.6Z"/>
              <path class="cls-11" d="M93.8,71.1c4.7,2.5,6.4,6.7,6.5,10v.2c-.9-.4-1.9-.7-2.9-.6,0,0-.1,0-.2,0,.6-4-1.1-7.2-3.4-9.6h0Z"/>
              <path class="cls-14" d="M88.9,73.7s-.2-3.6-3.3-3.5-3.8,3.2-3.7,4,.8,3,3,3.2,3.9-1.7,4.1-3.7h0Z"/>
              <path class="cls-18" d="M78.7,83.4c.9-1.2,2.5-2,5.4-.7,5.9,2.6,7.5.9,9.6-.2,1.3-1.2,1.8-1.9,3.5-2,0,.2,0,.3,0,.5-1,5.3-4.6,7.9-7.8,9.2h-.1c-1.1,0-2.2,0-3.3-.1h0c-4.6-1.2-6.5-4.5-7.2-6.7h0Z"/>
              <path class="cls-12" d="M78.7,83.4c.8,2.2,2.7,5.4,7.2,6.7h0c1.3.2,2.2.1,3.3.1,6.8,0,11.2-5,11-9.2s-2.8-9.5-10.4-11.6c-3.7-1-7.1,0-9.7,1.3,3.6-5,9.6-4.2,9.6-4.2,0,0,12.4,0,13.2,12.6.6,12.9-13.2,12.6-13.2,12.6,0,0-3.6,0-6.9-2-1.9-1.1-3.7-2.8-4.6-5.5.2-.3.3-.6.5-.8h0Z"/>
            </g>
          </g>
        </g>
      </g>
    </g>
    <g>
      <path class="cls-22" d="M75.9,68.4s1.8,4.3,7.8-.5,6.5-7.1,6.5-7.1"/>
      <path class="cls-22" d="M62.5,68.3s-3.3,7.7-14-7.6"/>
    </g>
    <g>
      <path class="cls-24" d="M61,96.8s3.1-5.3,8.1-5.4,7.6,5.4,7.6,5.4"/>
      <line class="cls-24" x1="68.9" y1="89" x2="68.7" y2="91.4"/>
    </g>
  </g>
  <g id="annoyed">
    <g id="ojos-4" data-name="ojos">
      <g>
        <g id="_Mirror_Repeat_-3-4" data-name=" Mirror Repeat -3">
          <g class="cls-46">
            <g>
              <path class="cls-12" d="M60,78.4c-.3-3.4-1.3-5.8-2.5-7.5-2.6-1.3-6.1-2.3-9.7-1.3-1.5.4-2.8.9-3.9,1.6-2.3,2.4-4,5.6-3.4,9.5,1.7,0,2.1.8,3.5,2,2.1,1,3.8,2.8,9.6.2,3.5-1.5,5.1,0,5.9,1.5.5-1.6.8-3.5.6-5.9h0Z"/>
              <path class="cls-9" d="M37.3,81.2c0,4.1,4.3,8.9,10.9,9-3.2-1.3-6.7-3.9-7.8-9.2,0-.1,0-.3,0-.4,0,0-.1,0-.2,0-1,0-2,.2-2.9.6Z"/>
              <path class="cls-8" d="M43.8,71.1c-4.6,2.5-6.4,6.7-6.5,10v.2c.9-.4,1.9-.7,2.9-.6,0,0,.1,0,.2,0-.6-4,1.1-7.2,3.4-9.6h0Z"/>
              <path class="cls-14" d="M48.7,73.7s.2-3.6,3.3-3.5,3.8,3.2,3.7,4-.8,3-3,3.2-3.9-1.7-4.1-3.7h0Z"/>
              <path class="cls-10" d="M58.8,83.4c-.9-1.2-2.5-2-5.4-.7-5.9,2.6-7.5.9-9.6-.2-1.3-1.2-1.8-1.9-3.5-2,0,.2,0,.3,0,.5,1,5.3,4.5,7.9,7.8,9.2h.1c1.1,0,2.2,0,3.3-.1h0c4.6-1.2,6.5-4.5,7.2-6.7h0Z"/>
              <path class="cls-12" d="M58.8,83.4c-.8,2.2-2.7,5.4-7.2,6.7h0c-1.3.2-2.2.1-3.3.1-6.8,0-11.1-5-11-9.2s2.8-9.5,10.4-11.6c3.7-1,7.1,0,9.7,1.3-3.6-5-9.6-4.2-9.6-4.2,0,0-12.4,0-13.2,12.6-.6,12.9,13.2,12.6,13.2,12.6,0,0,3.6,0,6.9-2,1.9-1.1,3.7-2.8,4.6-5.5-.2-.3-.3-.6-.5-.8h0Z"/>
            </g>
          </g>
        </g>
        <g id="_Mirror_Repeat_-4-4" data-name=" Mirror Repeat -4">
          <g class="cls-21">
            <g>
              <path class="cls-12" d="M77.6,78.4c.3-3.4,1.3-5.8,2.5-7.5,2.6-1.3,6.1-2.3,9.7-1.3,1.5.4,2.8.9,3.9,1.6,2.3,2.4,4,5.6,3.4,9.5-1.7,0-2.1.8-3.5,2-2.1,1-3.8,2.8-9.6.2-3.5-1.5-5.1,0-5.9,1.5-.6-1.6-.8-3.5-.6-5.9h0Z"/>
              <path class="cls-9" d="M100.3,81.2c0,4.1-4.3,8.9-10.9,9,3.2-1.3,6.7-3.9,7.8-9.2,0-.1,0-.3,0-.4,0,0,.1,0,.2,0,1,0,2,.2,2.9.6Z"/>
              <path class="cls-11" d="M93.8,71.1c4.7,2.5,6.4,6.7,6.5,10v.2c-.9-.4-1.9-.7-2.9-.6,0,0-.1,0-.2,0,.6-4-1.1-7.2-3.4-9.6h0Z"/>
              <path class="cls-14" d="M88.9,73.7s-.2-3.6-3.3-3.5-3.8,3.2-3.7,4,.8,3,3,3.2,3.9-1.7,4.1-3.7h0Z"/>
              <path class="cls-18" d="M78.7,83.4c.9-1.2,2.5-2,5.4-.7,5.9,2.6,7.5.9,9.6-.2,1.3-1.2,1.8-1.9,3.5-2,0,.2,0,.3,0,.5-1,5.3-4.6,7.9-7.8,9.2h-.1c-1.1,0-2.2,0-3.3-.1h0c-4.6-1.2-6.5-4.5-7.2-6.7h0Z"/>
              <path class="cls-12" d="M78.7,83.4c.8,2.2,2.7,5.4,7.2,6.7h0c1.3.2,2.2.1,3.3.1,6.8,0,11.2-5,11-9.2s-2.8-9.5-10.4-11.6c-3.7-1-7.1,0-9.7,1.3,3.6-5,9.6-4.2,9.6-4.2,0,0,12.4,0,13.2,12.6.6,12.9-13.2,12.6-13.2,12.6,0,0-3.6,0-6.9-2-1.9-1.1-3.7-2.8-4.6-5.5.2-.3.3-.6.5-.8h0Z"/>
            </g>
          </g>
        </g>
      </g>
    </g>
    <g>
      <path class="cls-22" d="M75.9,68.4s1.8,4.3,7.8-.5,6.5-7.1,6.5-7.1"/>
      <path class="cls-22" d="M62.5,68.3s-3.3,7.7-14-7.6"/>
    </g>
    <g>
      <g>
        <path class="cls-4" d="M76,94.2c-1.1-1.3-4.6-2.5-6.8-2.5s-3.8.4-6.8,2.1c0,0-5,3.3-3.2,7.2,0,.1.1.2.2.3,1-1.8,3.6-5.1,9.4-5.2,4.6-.1,5.8.5,8.2,5.4.5,0,1,0,1.4-.3,2-1.2-1.2-5.6-2.3-6.9Z"/>
        <path class="cls-5" d="M68.8,96c-5.8.1-8.4,3.4-9.4,5.2,1.2,1.3,5.3-1.9,5.3-1.9,0,0,1.4-1.3,4.5-.9s4,1.2,4,1.2c0,0,2,1.6,3.8,1.7-2.4-4.9-3.6-5.5-8.2-5.4Z"/>
        <g>
          <path class="cls-29" d="M72.1,92.3s-.6,2.5,1.3,3.1,2-1.7,2-1.7c0,0-1.4-1.2-3.3-1.4Z"/>
          <path class="cls-29" d="M62.7,93.2s-.3,1.9,1.6,2.1,2.3-3.3,2.3-3.3c0,0-1.4-.2-3.9,1.2Z"/>
        </g>
      </g>
      <path class="cls-24" d="M62.4,93.7s-5,3.3-3.2,7.2c.8,2,5.5-1.5,5.5-1.5,0,0,1.4-1.3,4.5-.9s4,1.2,4,1.2c0,0,3.2,2.6,5.1,1.4s-1.2-5.6-2.3-6.9-4.6-2.5-6.8-2.5-3.8.4-6.8,2.1Z"/>
    </g>
    <path class="cls-25" d="M72.9,66s-1.3,1.8-.5,3.6,1.5,1.9,1.5,1.9"/>
    <path class="cls-25" d="M65.6,66s1.2,1.5.8,2.8-2.2,3.7-2.2,3.7"/>
  </g>
  <g id="Layer_7-3" data-name="Layer 7">
    <path class="cls-19" d="M65.3,86.4s-.1-.7.3-1c.6-.5,1.2-.9,3.3-.9s2.9,1.1,2.9,1.1c0,0,.3.3.3.5,0,.4-.4.8-.4.8,0,0-1.3,1.7-2.3,2-.3.1-.5.1-.8.1-.3,0-2.3-.2-3.3-2.7h0Z"/>
  </g>
</svg>